<?xml version="1.0" encoding="utf-8"?>
<!-- Generator: Adobe Illustrator 25.0.1, SVG Export Plug-In . SVG Version: 6.00 Build 0)  -->
<svg version="1.0" id="katman_1" xmlns="http://www.w3.org/2000/svg" xmlns:xlink="http://www.w3.org/1999/xlink" x="0px" y="0px"
	 viewBox="0 0 560 400" style="enable-background:new 0 0 560 400;" xml:space="preserve">
<style type="text/css">
	.st0{fill:#D31F2A;}
</style>
<path class="st0" d="M214.6,99l6.4-8.5l-1.4,2.5c-0.2,0.3-0.1,0.6,0.2,0.8c0.3,0.2,0.6,0.1,0.7-0.2l2.5-4.5l2.6,4.6
	c0.2,0.3,0.5,0.4,0.7,0.2c0.3-0.2,0.3-0.5,0.2-0.8l-1.4-2.5l6.2,8.8c0,7.4-3.2,9.5-6.8,10.9h-3.1C218.2,108.5,214.8,106.6,214.6,99
	L214.6,99z M277.5,108.2l-81.2,54.5l0-108.9L277.5,108.2z M207.6,110.7c1.5,1.5,4.7,2.1,8.6,2.1c3.9,0,5.7-0.8,5.6-1.3h2.5
	c-0.1,0.6,3.3,1.5,6.2,1.5c3,0,6.6-1,7.7-2c1.1-1.1,2.5-7.6-1.3-11.3c0-0.1-12.7-11.2-12.7-11.2c0.7,0.1,1.5,0.2,2.2,0.2
	c0.4,0,0.8,0,1.1-0.2c1.1-0.5,1.6-1.9,1.2-3.1c-0.4-1.2-1.7-1.8-2.8-1.4c-0.9,0.4-2.7,2.8-3,3.3l-0.1,0.1c0,0-0.1,0-0.1,0l-0.1-0.1
	c-0.4-0.5-2.1-2.9-3-3.3c-1.1-0.5-2.3,0.1-2.8,1.4c0,0,0,0,0,0.1c-0.4,1.2,0.1,2.6,1.2,3c0.4,0.1,0.8,0.2,1.1,0.2
	c0.7,0,1.4-0.1,2.2-0.2c0,0-12.6,11.1-12.7,11.3C205.1,103.6,206.1,109.3,207.6,110.7L207.6,110.7z M238.7,117.2h-15.4h-15.4v2
	c0,0,8.9,0.2,13.4,12.3h4.1c4.5-12.1,13.4-12.3,13.4-12.3L238.7,117.2z M219.6,85.1c-0.1-0.1-0.3-0.1-0.4-0.1
	c-0.6,0-1.1,0.5-1.1,1.2c0,0.2,0,0.3,0.1,0.5c0.1,0.3,0.3,0.5,0.6,0.6c0.9,0.1,1.8,0.1,2.7-0.1C220.9,86.5,220.3,85.7,219.6,85.1z
	 M227.3,87.4c0.5-0.2,0.8-0.9,0.6-1.5c-0.2-0.6-0.8-0.9-1.4-0.7c-0.7,0.6-1.4,1.3-1.9,2.1C225.5,87.5,226.4,87.5,227.3,87.4z
	 M166.1,107.3l-1.8-3.7l-1.8,3.7l-4.1,0.6l3,2.9l-0.7,4.1l3.7-1.9l3.7,1.9l-0.7-4.1l3-2.9L166.1,107.3z M190.7,53.9l0,108.9
	l-81.2-54.5L190.7,53.9z M187.5,103.2l-14.7-11l-0.1-0.7l-0.8,0l0,0l0,0l-0.5,0c-0.8,2.7-3.9,4.7-7.7,4.7c-3.7,0-6.7-1.9-7.6-4.5
	l-1.1,0l-15.6,11.7l7.8,8.6l6.6-3.8l-1.6,21h24.7l-2.3-20.4l5,2.9L187.5,103.2z M406.7,116.9c0,0-0.5,0.2-1.9-0.4
	c-1-0.4-1.3-0.9-1.3-1.1c0-0.4-0.3-0.8-0.7-0.9c-0.4-0.1-0.9,0.2-1,0.7c0,0.2-0.2,1.9,2.4,2.9c1,0.4,1.8,0.5,2.3,0.5
	c0.7,0,1-0.2,1.2-0.3c0.4-0.3,0.5-0.8,0.2-1.2C407.6,116.7,407.1,116.6,406.7,116.9z M451,108.2l-81.2,54.5l0-108.9L451,108.2z
	 M384.1,106.7c0,0,4.9,0.7,9.1-3s5.9-10.4,5.9-10.4s-8.9,1.1-12.2,4.1C382.9,101.2,384.1,106.7,384.1,106.7z M416.2,119.9
	c0-3.1-1.5-5.7-4.7-6.9c-1-0.4-2.8,0-4,0c0-1.6,0-5.1-1.2-7.9c-0.6-1.5-1.4-2.6-1.9-3.6c-0.8-1.2-1.3-2.1-1.3-3.2c0,0,0,0,0,0
	c0-0.3,0-0.5,0-0.8c0-3.7,0.2-5.3,0.2-5.3c0.1-0.5-0.3-0.9-0.7-0.9c-0.4-0.1-0.9,0.3-0.9,0.7c0,0.1-0.2,1.7-0.2,5.5
	c0,3.4,0,4.7-3.8,8.5c-1.2,1.2-2.1,2.2-3.2,3.3l-1.1,1.2c-1.5,1.6-3.3,4.1-3.5,4.4c-1.2-0.1-2.8-0.2-3.6,0.1c-2.7,1.1-3.6,3.4-3.6,6
	c0,3.7,3.9,8.2,8,8.2c2.9,0,6-2.4,7.2-5.1c-0.7-1.4-1.1-2.9-1.1-4.4c0-1.2,0.2-2.2,0.4-3.1c-0.7-0.8-1.6-1.5-2.8-1.9
	c-0.6-0.2-1.6-0.1-2.6,0c0.7-0.9,1.7-2.3,2.6-3.2l1.1-1.2c1.1-1.1,2-2.1,3.1-3.3c2.3-2.3,3.3-3.8,3.8-5.4c0.1,0.2,0.2,0.4,0.4,0.6
	c0.6,0.9,1.2,2,1.8,3.3c1.1,2.5,1.1,5.8,1.1,7.2c-1.2-0.1-2.6-0.1-3.5,0.2c-3,1.2-4,3.8-4,6.7c0,4.1,4,9.1,8.9,9.1
	C412.2,129,416.2,124,416.2,119.9L416.2,119.9z M390,118.3c0,0-0.4,0.1-1.7-0.3c-1-0.4-1.1-0.8-1.1-0.9c0-0.4-0.3-0.8-0.7-0.9
	c-0.4-0.1-0.9,0.2-1,0.7c0,0.2-0.2,1.7,2.2,2.7c0.9,0.4,1.6,0.5,2.1,0.5c0.6,0,0.9-0.2,1.1-0.3c0.4-0.3,0.5-0.8,0.2-1.2
	C390.8,118.1,390.4,118,390,118.3L390,118.3z M327.1,108.4c-0.4,0-0.7,0.3-0.7,0.7v18.4c0,0.4,0.3,0.7,0.7,0.7s0.7-0.3,0.7-0.7
	v-18.4C327.8,108.7,327.5,108.4,327.1,108.4z M364.2,53.9l0,108.9l-81.2-54.5L364.2,53.9z M354.3,110.1c0,1,0.8,1.7,1.7,1.7
	s1.7-0.8,1.7-1.7c0-1-0.8-1.7-1.7-1.7S354.3,109.1,354.3,110.1z M351,106.8c0,0.6,0.5,1,1,1s1-0.5,1-1c0-0.6-0.5-1-1-1
	S351,106.2,351,106.8z M349.2,110.5c0,0.5,0.4,1,1,1c0.5,0,1-0.4,1-1c0-0.5-0.4-1-1-1C349.7,109.5,349.2,110,349.2,110.5z
	 M346.4,103.8c0,0.6,0.5,1.1,1.1,1.1c0.6,0,1.1-0.5,1.1-1.1c0-0.6-0.5-1.1-1.1-1.1C346.9,102.7,346.4,103.2,346.4,103.8z
	 M344.4,110.7c0,0.5,0.4,0.9,0.9,0.9c0.5,0,0.9-0.4,0.9-0.9c0-0.5-0.4-0.9-0.9-0.9C344.8,109.7,344.4,110.2,344.4,110.7z
	 M341.1,120.6c-3.3-1.6-5.4-4.1-5.4-7.1h5.4v-2.2c0-2.9-6.1-8.7-6.1-11.7c0-2.1-0.3-7.7-0.4-11h1.2v-4.2h-7v4.2h1.2
	c-0.2,3.2-0.4,8.9-0.4,11c0,3-6.1,8.5-6.1,11.7v18.1c0,0.9,0.7,1.7,1.7,1.7h14.3c0.9,0,1.7-0.7,1.7-1.7
	C341.1,129.5,341.1,125.1,341.1,120.6z M359.8,114.8h-22.6c0,3,4.7,5.5,10.6,5.6v9.1c0,0.3-4.2,0.4-4.2,0.4c-0.4,0-0.8,0.4-0.8,0.8
	c0,0.4,0.4,0.8,0.8,0.8h9.7c0.4,0,0.8-0.4,0.8-0.8c0-0.4-0.4-0.8-0.8-0.8c0,0-4.2,0-4.2-0.4v-9.1C355,120.3,359.8,117.8,359.8,114.8
	L359.8,114.8z M196.3,176.1l81.2,54.4L196.3,285L196.3,176.1z M212.7,219.5c0,0.7,0.6,1.2,1.4,1.2h3.9c0.8,0,1.4-0.5,1.4-1.2v-1.2
	c0-0.7-0.6-1.2-1.4-1.2h-3.9c-0.8,0-1.4,0.5-1.4,1.2V219.5z M209.4,244.9c0,0.8,0.6,1.4,1.4,1.4h31.9c0.8,0,1.4-0.6,1.4-1.4v-21.7
	c0-0.8-0.6-1.4-1.4-1.4h-4.3c-1.2-2.6-2.5-5.6-3-5.6h-11.6c-0.4,0-1.8,2.9-3,5.6h-10.1c-0.8,0-1.4,0.6-1.4,1.4L209.4,244.9z
	 M218.8,233.4c0-6,4.9-10.9,10.9-10.9s10.9,4.9,10.9,10.9s-4.9,10.9-10.9,10.9S218.8,239.4,218.8,233.4z M222.4,233.4
	c0,4.1,3.3,7.3,7.3,7.3c4.1,0,7.3-3.3,7.3-7.3c0-4.1-3.3-7.3-7.3-7.3C225.7,226.1,222.4,229.3,222.4,233.4z M227.3,231.9
	c0.9-1.7,1.5-3.3,0.4-3.8c-1.1-0.5-2.7,0.4-3.5,2.2c-0.9,1.7-0.7,3.6,0.4,4.1C225.7,235,226.4,233.7,227.3,231.9L227.3,231.9z
	 M190.7,176.1l0,108.9l-81.2-54.6L190.7,176.1z M129.4,234.1c3.1,0,10.9-0.2,20.7-0.7c1.9-0.1,4-0.2,6.1-0.4
	c-0.2-0.4-0.4-0.7-0.6-1.1c-1.1-1.9-3.9-4.4-3.9-4.5l1.1-1.2c0.1,0.1,3,2.8,4.3,4.9c0.4,0.7,0.7,1.3,0.9,1.8
	c0.8-0.1,1.7-0.1,2.5-0.2c-0.1-0.3-0.3-0.5-0.4-0.8c-1.1-1.9-3.9-4.4-3.9-4.5l1.1-1.2c0.1,0.1,3,2.8,4.3,4.9c0.3,0.5,0.6,1,0.8,1.5
	c0.8-0.1,1.7-0.1,2.5-0.2c-0.1-0.1-0.2-0.3-0.2-0.5c-1.1-1.9-3.9-4.4-3.9-4.5l1.1-1.2c0.1,0.1,3,2.8,4.3,4.9
	c0.2,0.4,0.4,0.8,0.6,1.1c0.8-0.1,1.6-0.1,2.4-0.2c0,0,0-0.1,0-0.1c-1.1-1.9-3.9-4.4-3.9-4.5l1.1-1.2c0.1,0.1,3,2.8,4.3,4.9
	c0.2,0.3,0.3,0.5,0.4,0.8c4.6-0.4,8.5-0.8,10.9-1.1l-0.1-0.1c0.2-0.3,1.1-1.8-0.2-7.1c-0.1,0-1.6-4.9-2.7-7.6
	c-0.1-0.2-0.2-0.3-0.4-0.4c0,0-2.2-1.3-3.4,0.7c-1.3,2-1.6,5-4.2,5.2c-2.5,0.2-3.6-0.8-4.3-1.8c-0.7-1-0.9-1.4-1.2-2.5
	c-0.3-1.1-0.3-2.6-1.1-2.9l-0.9-0.3c-1-0.4-2.1,0.3-2.8,0.9c-0.7,0.7-1.9,1.9-4,2.9s-3.9,1.3-3.9,1.3l-0.8,0.8
	c-0.1,0-0.1,0.1-0.1,0.1l0,0.1l0.2,0.3l-0.8,0.6l-0.7-0.3l-0.1,0l-1.1,0.6c-0.1,0-0.1,0.1-0.1,0.1l0.3,0.4l-0.9,0.5l-0.7-0.3l-0.1,0
	l-0.1,0l-1,0.6l0,0.1l0.3,0.5l-0.9,0.5l-0.6-0.3c0,0-0.1-0.1-0.1,0l-1.1,0.5l-0.1,0.1l0,0.1l0.2,0.5l-0.8,0.5l-0.6-0.3l-0.1,0
	l-0.1,0l-1,0.5l-0.1,0.1l0,0.1l0.2,0.5l-1.1,0.6l-0.5-0.3c0,0-0.1-0.1-0.1,0c-0.3,0.2-0.6,0.5-0.9,0.8c-0.1,0.1-0.1,0.1,0,0.1
	l0.2,0.3c-0.2,0.3-1.3,0.7-3.4,1.8C134.3,230.1,130.8,231.7,129.4,234.1z M182.4,236.3l-0.2-4.2l0-0.1c-5.7,0.6-21.6,1.9-32,2.7
	c-12.3,1-18.2,0.7-21.1,0.7l-0.1,2.9c0,0.1,0.1,0.2,0.2,0.2l3,0.4c3.1,0.4,6.3,0.6,9.5,0.4l40.5-2.8
	C182.3,236.5,182.4,236.4,182.4,236.3z M420,226.5c0-0.7-0.2-1.2-0.7-1.6c-1.5-1.3-4.7-1.4-6.6-1.2c-0.4,4.3-1.7,8.2-3.5,11.4
	C414.7,232.3,420,228.8,420,226.5L420,226.5z M369.8,176.1l81.2,54.4L369.8,285L369.8,176.1z M394.5,208c-0.2,1.9,2.6,3.5,2.3,5.8
	s-0.5,3.8-0.5,3.8s3.1-2.7,3.3-5.1c0.2-2.4-2.5-3.9-2.3-5.8c0.2-1.9,0.5-3.8,0.5-3.8S394.7,206.2,394.5,208L394.5,208z M382.3,220.1
	c0,8.7,3.2,16.2,7.9,20.1H405c0.5-0.4,0.9-0.8,1.3-1.3c5-2.2,16-7.5,16-12.5c0-1.4-0.5-2.5-1.5-3.4c-2.1-1.9-5.9-1.9-8-1.8
	c0-0.4,0.1-0.8,0.1-1.2h-25.7c-0.1,1.2,0,2.9,0.4,4.8c0.9,4,2.2,5.9,2.2,6c0.4,0.5,0.2,1.3-0.3,1.6c-0.2,0.1-0.4,0.2-0.7,0.2
	c-0.4,0-0.7-0.2-0.9-0.5c-0.1-0.1-1.6-2.3-2.6-6.8c-0.5-2.1-0.5-4-0.4-5.3L382.3,220.1z M377.3,241.4c0,1.7,4.2,3.1,10.5,3.8h19.6
	c6.3-0.7,10.5-2.2,10.5-3.8H377.3z M349.3,228.5c0.2,0.8,0.3,1.6,0.3,2.4c0,0.8-0.1,1.5-0.3,2.2c-0.4,1.8-1.2,3.4-2.3,4.7
	c-0.6,0.7-1.4,1.4-2.2,1.9c-1.7,1.1-3.6,1.7-5.8,1.7c-2.1,0-4.1-0.6-5.8-1.7c-0.8-0.5-1.6-1.2-2.2-1.9c-1.6-1.9-2.6-4.3-2.6-6.9
	s1-5.1,2.6-6.9c0.6-0.7,1.4-1.4,2.2-1.9c1.7-1.1,3.6-1.7,5.8-1.7c2.1,0,4.1,0.6,5.8,1.7c0.8,0.5,1.6,1.2,2.2,1.9
	C348.1,225.3,348.9,226.8,349.3,228.5L349.3,228.5z M344.6,226.4c-0.4-0.5-1.1-0.5-1.6-0.1l-3.1,2.7c-0.3-0.1-0.6-0.2-0.9-0.2
	c-0.2,0-0.4,0.1-0.6,0.1l-4.3-5.2c-0.4-0.5-1.1-0.5-1.6-0.2c-0.5,0.4-0.5,1.1-0.2,1.6l4.4,5.4c0,0.1-0.1,0.3-0.1,0.4
	c0,1.2,1,2.2,2.2,2.2s2.2-1,2.2-2.2c0,0,0-0.1,0-0.1l3.3-2.9C344.9,227.5,345,226.8,344.6,226.4L344.6,226.4z M333.3,242.6v2.1h11.5
	v-2.1c-1.7,0.9-3.7,1.4-5.8,1.4C337,243.9,335,243.4,333.3,242.6z M344.8,219.2v-2.1h-11.5v2.1c1.7-0.9,3.7-1.4,5.8-1.4
	C341.1,217.9,343.1,218.4,344.8,219.2z M364.2,176.1l0,108.9l-81.2-54.6L364.2,176.1z M354,230.8c0-1.3,0.5-2.4-2.2-2.5
	c-0.6-3.1-2.4-5.8-4.8-7.7v-5.2c0-0.3-0.2-0.5-0.5-0.5h-2.6V210h-9.6v4.9h-2.6c-0.3,0-0.5,0.2-0.5,0.5v5.2
	c-3.1,2.4-5.1,6.1-5.1,10.3c0,4.2,2,7.9,5.1,10.3v5.2c0,0.3,0.2,0.5,0.5,0.5h2.6v4.9h9.6v-4.9h2.6c0.3,0,0.5-0.2,0.5-0.5v-5.2
	c2.5-1.9,4.2-4.7,4.8-7.9C354.5,233.2,354,232.2,354,230.8L354,230.8z M283.1,237.2l81.2,54.4l-81.2,54.6L283.1,237.2z M291.1,282.4
	h38.1v-1.1c0-0.9-0.7-1.7-1.7-1.7h-12.3c-4.7,0-6-6.7-14.3-6.7c-6.8,0-9.9,5.3-9.9,8.3L291.1,282.4z M287.6,299.9
	c0.2,0.2,0.4,0.4,0.7,0.4h3.1v7.2c0,0.5,0.4,0.8,0.8,0.8s0.8-0.4,0.8-0.8v-7.2h35v7.2c0,0.5,0.4,0.8,0.8,0.8c0.5,0,0.8-0.4,0.8-0.8
	v-7.2h2.2c0.3,0,0.5-0.1,0.7-0.4c0.2-0.2,0.2-0.5,0.1-0.8l-3.4-9.1c0-0.1-0.1-0.1-0.2-0.2v-6h-38.1v5.8c-0.1,0.1-0.2,0.2-0.3,0.3
	l-3.4,9.1C287.4,299.4,287.4,299.7,287.6,299.9L287.6,299.9z M328,291.3h-3.1l1,4.1h-6.3l-0.4-4.1h-2.8l0.3,4.1h-5.4l-0.2-4.1h-2.5
	l-0.2,4.1h-5.4l0.3-4.1h-2.5l-0.7,4.1h-6l1-4.1h-2.7l-2.7,7.3h41.3L328,291.3z M272.1,311.9h-13.3v-19h13.3V311.9z M266.3,311
	c0-0.5-0.4-0.8-0.8-0.8c-0.5,0-0.8,0.4-0.8,0.8c0,0.5,0.4,0.8,0.8,0.8C265.9,311.8,266.3,311.4,266.3,311z M271.1,294h-11.3v16h11.3
	V294z M277.5,237.2l0,108.9l-81.2-54.6L277.5,237.2z M257.4,300.9h-8.6h-8.9h-13.8v-24h36.6v14.4h1v-15.4H225v25.9h14.8v5H235v3.3
	h18.6v-3.3h-4.8v-5h8.6V300.9z M257.4,291.3h4v-13.1h-34.3v21.3h30.3V291.3z M273.1,292h-15.2v20.9h15.2V292z M190.2,169.5
	L109,224.1l0-108.9L190.2,169.5z M118,176.9h37.3l-2.2-10.7c-0.1-0.5-0.5-0.9-1.1-1.1c0-0.2,0-0.4-0.1-0.6L138.7,145
	c-0.1-0.7-0.5-1.2-1.1-1.6l-0.4-0.6c-0.2-0.2-0.4-0.4-0.7-0.4h0c-0.3,0-0.5,0.1-0.7,0.4l-0.2,0.3c-1.1,0.3-1.9,1.2-1.9,2.4
	c0,0.1,0,0.2,0,0.3l-12.7,18.7c-0.2,0.2-0.2,0.5-0.1,0.8c-0.4,0.2-0.7,0.6-0.8,1L118,176.9z M156,180l-0.3-1.4h-38l-0.3,1.4
	c-0.4,1.9,1.4,3.6,3.8,3.6h31C154.6,183.6,156.4,181.9,156,180z M136.2,148c-0.6,0-1.1-0.2-1.6-0.6l-11.9,17.5h27.5l-12.1-17.8
	C137.7,147.6,137,148,136.2,148z M392.3,166.5c0-0.7-0.6-1.2-1.3-1.2c-0.7,0-1.2,0.6-1.2,1.3c0,0.7,0.6,1.2,1.3,1.2
	C391.8,167.8,392.3,167.2,392.3,166.5L392.3,166.5z M451,115.2l0,108.9l-81.2-54.6L451,115.2z M391.3,170.8
	c3.2-2.5,9.6-4.2,12.7-4.9c2.6-0.6,5.6-0.9,8.7-0.9c5.2,0,10.2,0.9,14.2,2.5c2.3,0.9,3.9,1.7,5,2.3c1.3,0.7,1.9,1,2.4,1
	c0.3,0,0.6-0.1,1-0.2c0.2-0.1,0.3-0.1,0.5-0.1c-2-0.8-3.9-1.8-2.8-2.5c2-1.3,7.7-0.1,7.7-0.1s-3.4-4.3-11.7-2.5
	c-3.1,0.7-2.8-1.2-9.2-3.5c-1.8-0.7-4.1-1.1-6.3-1.5c-1-0.2-1.8-3.7-2.9-3.8c-1.5-0.1-3.9,3.4-5.4,3.5c-2.9,0.1-6.2,0.4-8.7,1.1
	c-4.5,1.2-11.8,4-12.5,6.5C383.7,168.9,387.5,170.1,391.3,170.8z M439,173.8c2.1-1.3,7.8,0,7.8,0s-3.5-4.1-11.1-1.7
	c-3,1-3.3-0.6-9.6-3.1c-6.3-2.5-15.2-3-21.9-1.5c-4.5,1.1-12.4,3.5-13.2,6c-0.8,2.5,14,5.1,14.4,4.5c0.4-0.6,0.4-3.9,0.4-3.9
	s0.1,2.9,4.7,6s13.7,0.9,10.9,0.3c-2.7-0.6-5.1-3.2-5.1-3.2s1.9,0.8,2.3,0.8c6.1,1.3,15.4-3.2,17.4-1.6c2.2,1.7,9.5,0.6,9.5,0.6
	S436.9,175,439,173.8L439,173.8z M398.1,171.5c-0.7,0-1.3,0.6-1.3,1.3c0,0.7,0.6,1.3,1.3,1.3c0.7,0,1.3-0.6,1.3-1.3
	C399.3,172,398.7,171.5,398.1,171.5z M286.7,185.5l-5,19.5l-7.5,3.6l0.3-8.1l0.6-14.7l-7,0.3l-2-6.5l-4.5,4l-2.4,27l-13.9-9.5
	l7.2-4.2l-0.6-12l-5.8,2.8l-3.9-13.6l9-1.5l-0.4-11.3l-7.5-9.7l6.7-1.4l8.3-15.6l5.3,13.1l5.3,1.9l-0.3,3.8l9.2-0.5l-4.4-18.6
	l15.6,6.7l-3.5,11.7l9.9-2l5.8-18.3l13.6,10l-12.2,8.9l11.4,0.8l3.9,10.6l-9.2-0.3l-1.1,12l9.2,0.3l3.3,10.8l-12,0.8l-2.8,19.7
	l-7.2,4.7l-4.7-25.6L286.7,185.5L286.7,185.5z M289.4,165.8l-0.8,7l0.8,1.6l8.1-0.2l-1.1-10.8l-7.3,1.6L289.4,165.8z M275.8,163.3
	l-6.1,0.3l-1.9-6.8l-5.1,4.8v8.9l7.8,0.6l-1.8,4.1l7.1-0.2V163.3z"/>
</svg>
