<?xml version="1.0" encoding="UTF-8"?>
<svg id="Layer_2" data-name="Layer 2" xmlns="http://www.w3.org/2000/svg" viewBox="0 0 244.04 79.86">
  <defs>
    <style>
      .cls-1 {
        fill: #d53227;
      }

      .cls-2 {
        fill: #231f20;
      }
    </style>
  </defs>
  <g id="Layer_1-2" data-name="Layer 1">
    <g>
      <path class="cls-2" d="M0,78.23V16.74H36.2v11.09H13.15v12.64h23.06v11.17H13.15v26.58H0Z"/>
      <path class="cls-2" d="M57.03,37.03v21.67c0,3.64,.71,6.24,2.12,7.81,1.41,1.57,3.72,2.35,6.91,2.35s5.46-.79,6.89-2.37c1.43-1.58,2.14-4.18,2.14-7.79v-21.67h11.97v21.67c0,7.25-1.69,12.59-5.08,16.02-3.39,3.43-8.64,5.14-15.75,5.14s-12.58-1.71-15.98-5.12c-3.4-3.42-5.1-8.76-5.1-16.04v-21.67h11.88Z"/>
      <path class="cls-2" d="M100.03,78.23v-31.83h-5.75v-9.37h5.75v-13.69h11.97v13.69h5.75v9.37h-5.75v31.83h-11.97Z"/>
      <path class="cls-2" d="M124.56,20.1c0-1.9,.69-3.54,2.06-4.91s3.01-2.06,4.91-2.06,3.59,.68,4.98,2.04c1.39,1.36,2.08,3,2.08,4.93s-.69,3.58-2.08,4.96c-1.39,1.37-3.04,2.06-4.98,2.06s-3.54-.7-4.91-2.1c-1.37-1.4-2.06-3.04-2.06-4.91Zm1.05,58.12V37.03h11.93v41.2h-11.93Z"/>
      <path class="cls-2" d="M190.96,78.23h-11.59l.17-5.92c-1.62,2.6-3.58,4.51-5.86,5.73-2.28,1.22-5.06,1.83-8.34,1.83-5.46,0-9.86-2.03-13.21-6.09-3.35-4.06-5.02-9.42-5.02-16.08s1.64-12.35,4.93-16.23c3.29-3.88,7.86-5.82,13.71-5.82,3.05,0,5.73,.69,8.04,2.06,2.31,1.37,4.25,3.42,5.82,6.13v-6.8h11.34v41.2Zm-10.92-20.66c0-3.7-.93-6.62-2.79-8.78-1.86-2.16-4.37-3.23-7.54-3.23s-5.8,1.07-7.66,3.21c-1.86,2.14-2.79,5.08-2.79,8.8s.92,6.62,2.75,8.69c1.83,2.07,4.37,3.11,7.62,3.11s5.86-1.04,7.69-3.11c1.82-2.07,2.73-4.97,2.73-8.69Z"/>
      <path class="cls-2" d="M202.21,78.23V37.03h11.72v6.47c2.16-2.69,4.47-4.67,6.95-5.94,2.48-1.27,5.23-1.91,8.25-1.91,3.19,0,5.87,.54,8.04,1.62,2.17,1.08,3.88,2.72,5.14,4.93,.62,1.15,1.06,2.44,1.32,3.88,.27,1.44,.4,3.7,.4,6.78v25.37h-11.97v-20.37c0-5.07-.59-8.41-1.76-10.04-1.18-1.62-3.19-2.44-6.05-2.44-1.65,0-3.17,.34-4.56,1.03-1.39,.69-2.54,1.66-3.46,2.92-.73,.98-1.25,2.1-1.58,3.36s-.48,3.18-.48,5.75v19.78h-11.97Z"/>
      <g>
        <path class="cls-1" d="M165.12,5.28l1.24,.73c-.08,.11-.2,.23-.37,.25-.87,2.28-2.17,4.51-3.64,6.52,1.16,.87,3.44,2.76,4.09,3.27l-1.1,1.69c-.65-.76-2.12-2.12-3.27-3.16v11.62h-1.86V15.38c-1.1,1.18-2.26,2.26-3.41,3.1-.2-.51-.71-1.33-1.02-1.66,3.05-2.12,6.26-5.84,8.01-9.7h-7.56v-1.75h3.98V0l2.4,.14c-.03,.2-.17,.34-.54,.39V5.36h2.71l.34-.08Zm.96-4.29h15.97v1.66h-15.97V.99Zm.62,25.22V13.68h14.5v12.41h-1.86v-1.24h-10.83v1.35h-1.81Zm1.66-21.5h11.23v6.91h-11.23V4.71Zm4.6,10.64h-4.46v3.1h4.46v-3.1Zm-4.46,7.87h4.46v-3.16h-4.46v3.16Zm9.31-13.15v-3.81h-7.73v3.81h7.73Zm1.52,8.38v-3.1h-4.6v3.1h4.6Zm-4.6,4.77h4.6v-3.16h-4.6v3.16Z"/>
        <path class="cls-1" d="M185.68,1.97h23.36V25.98h-1.95v-1.78h-19.52v1.78h-1.89V1.97Zm10.52,1.86h-8.63V12.02h8.63V3.84Zm-8.63,10.07v8.41h8.63V13.91h-8.63Zm19.52-1.89V3.84h-8.97V12.02h8.97Zm-8.97,10.3h8.97V13.91h-8.97v8.41Z"/>
        <path class="cls-1" d="M238.32,22.74v1.81h-22.51v1.72h-1.89V1.81h23.78v1.83h-21.89V22.74h22.51Zm-18.14-15.83c2.23,1.33,4.63,2.93,6.88,4.63,1.72-2.14,3.27-4.46,4.51-6.83,1.3,.56,1.81,.76,2.29,.96-.08,.2-.37,.28-.71,.23-1.33,2.37-2.88,4.65-4.6,6.77,2.68,2.09,5.05,4.2,6.6,6.01l-1.5,1.41c-1.44-1.78-3.7-3.89-6.29-5.98-2.48,2.82-5.25,5.28-8.1,7.19-.37-.37-1.04-.96-1.52-1.3,2.85-1.81,5.64-4.26,8.12-7.08-2.28-1.75-4.71-3.44-7-4.82l1.3-1.18Z"/>
      </g>
    </g>
  </g>
</svg>