<?xml version="1.0" encoding="UTF-8"?>
<svg xmlns="http://www.w3.org/2000/svg" xmlns:xlink="http://www.w3.org/1999/xlink" viewBox="0 0 432.69 316.83">
  <defs>
    <style>
      .cls-1 {
        fill: url(#linear-gradient-75);
      }

      .cls-2 {
        fill: url(#linear-gradient-119);
      }

      .cls-3 {
        fill: url(#linear-gradient-2);
      }

      .cls-4 {
        fill: url(#linear-gradient-51);
      }

      .cls-5 {
        fill: #fff;
      }

      .cls-6 {
        fill: url(#linear-gradient-122);
      }

      .cls-7 {
        fill: url(#linear-gradient-17);
      }

      .cls-8 {
        fill: url(#linear-gradient-87);
      }

      .cls-9 {
        fill: #bb3345;
      }

      .cls-10 {
        fill: url(#linear-gradient-93);
      }

      .cls-11 {
        fill: url(#linear-gradient-92);
      }

      .cls-12 {
        fill: url(#linear-gradient-80);
      }

      .cls-13 {
        fill: url(#linear-gradient-109);
      }

      .cls-14 {
        fill: #2f3547;
      }

      .cls-15 {
        fill: url(#linear-gradient-43);
      }

      .cls-16 {
        fill: #e39b76;
      }

      .cls-17 {
        fill: #97bacf;
      }

      .cls-18 {
        fill: #f4f6f7;
      }

      .cls-19 {
        fill: #7bb33b;
      }

      .cls-20 {
        fill: url(#linear-gradient-15);
      }

      .cls-21 {
        fill: url(#linear-gradient-58);
      }

      .cls-22 {
        fill: url(#linear-gradient-69);
      }

      .cls-23 {
        fill: url(#linear-gradient-81);
      }

      .cls-24 {
        fill: url(#linear-gradient-18);
      }

      .cls-25 {
        fill: url(#linear-gradient-56);
      }

      .cls-26, .cls-27 {
        fill: #f5f5f5;
      }

      .cls-28 {
        fill: url(#linear-gradient-40);
      }

      .cls-29 {
        fill: url(#linear-gradient-52);
      }

      .cls-30 {
        fill: url(#linear-gradient-28);
      }

      .cls-31 {
        fill: url(#linear-gradient-14);
      }

      .cls-32 {
        fill: url(#linear-gradient-36);
      }

      .cls-33 {
        fill: url(#linear-gradient-78);
      }

      .cls-34 {
        fill: url(#linear-gradient-20);
      }

      .cls-35 {
        fill: url(#linear-gradient-6);
      }

      .cls-36 {
        fill: url(#linear-gradient-53);
      }

      .cls-37 {
        isolation: isolate;
      }

      .cls-38, .cls-39, .cls-27 {
        opacity: .2;
      }

      .cls-40 {
        fill: url(#linear-gradient-91);
      }

      .cls-41 {
        fill: #a2c8de;
      }

      .cls-42 {
        fill: url(#linear-gradient-60);
      }

      .cls-43 {
        fill: url(#linear-gradient-108);
      }

      .cls-44 {
        fill: url(#linear-gradient-84);
      }

      .cls-45 {
        fill: #3b4259;
      }

      .cls-46 {
        fill: url(#linear-gradient-104);
      }

      .cls-47 {
        fill: url(#linear-gradient-35);
      }

      .cls-48 {
        fill: url(#linear-gradient-48);
      }

      .cls-49 {
        fill: url(#linear-gradient-32);
      }

      .cls-50 {
        fill: url(#linear-gradient-120);
      }

      .cls-51 {
        fill: #008bee;
      }

      .cls-52 {
        fill: #dfecf4;
      }

      .cls-53 {
        fill: url(#linear-gradient-97);
      }

      .cls-54 {
        fill: url(#linear-gradient-11);
      }

      .cls-55 {
        fill: url(#linear-gradient-50);
      }

      .cls-56 {
        fill: url(#linear-gradient-106);
      }

      .cls-57 {
        fill: url(#linear-gradient-111);
      }

      .cls-58 {
        fill: url(#linear-gradient-63);
      }

      .cls-59 {
        fill: url(#linear-gradient-67);
      }

      .cls-60 {
        fill: url(#linear-gradient-95);
      }

      .cls-61 {
        fill: url(#linear-gradient-86);
      }

      .cls-62 {
        fill: url(#linear-gradient-39);
      }

      .cls-63 {
        fill: url(#linear-gradient-110);
      }

      .cls-64 {
        fill: url(#linear-gradient-124);
      }

      .cls-65 {
        fill: #afcce0;
      }

      .cls-66 {
        fill: #bedaeb;
      }

      .cls-67 {
        fill: url(#linear-gradient-10);
      }

      .cls-68 {
        fill: url(#linear-gradient-59);
      }

      .cls-39 {
        fill: url(#linear-gradient-102);
        mix-blend-mode: overlay;
      }

      .cls-69 {
        fill: #454e69;
      }

      .cls-70 {
        fill: url(#linear-gradient-117);
      }

      .cls-71 {
        fill: url(#linear-gradient-49);
      }

      .cls-72 {
        fill: url(#linear-gradient-37);
      }

      .cls-73 {
        fill: url(#linear-gradient-82);
      }

      .cls-74 {
        fill: url(#linear-gradient-16);
      }

      .cls-75 {
        fill: url(#linear-gradient-31);
      }

      .cls-76 {
        fill: url(#linear-gradient-85);
      }

      .cls-77 {
        fill: url(#linear-gradient-112);
      }

      .cls-78 {
        fill: url(#linear-gradient-61);
      }

      .cls-79 {
        fill: url(#linear-gradient-114);
      }

      .cls-80 {
        fill: url(#linear-gradient-68);
      }

      .cls-81 {
        fill: url(#linear-gradient-103);
      }

      .cls-82 {
        fill: url(#linear-gradient-62);
      }

      .cls-83 {
        fill: url(#linear-gradient-107);
      }

      .cls-84 {
        fill: url(#linear-gradient-41);
      }

      .cls-85 {
        fill: #5b862c;
      }

      .cls-86 {
        fill: url(#linear-gradient-76);
      }

      .cls-87 {
        fill: url(#linear-gradient-98);
      }

      .cls-88 {
        fill: #506e85;
      }

      .cls-89 {
        fill: url(#linear-gradient-21);
      }

      .cls-90 {
        fill: url(#linear-gradient-72);
      }

      .cls-91 {
        fill: #942837;
      }

      .cls-92 {
        fill: url(#linear-gradient-25);
      }

      .cls-93 {
        fill: url(#linear-gradient-121);
      }

      .cls-94 {
        fill: url(#linear-gradient-89);
      }

      .cls-95 {
        fill: url(#linear-gradient-5);
      }

      .cls-96 {
        fill: url(#linear-gradient-64);
      }

      .cls-97 {
        fill: url(#linear-gradient-83);
      }

      .cls-98 {
        fill: url(#linear-gradient-54);
      }

      .cls-99 {
        fill: url(#linear-gradient-45);
      }

      .cls-100 {
        fill: url(#linear-gradient-113);
      }

      .cls-101 {
        fill: url(#linear-gradient-55);
      }

      .cls-102 {
        fill: url(#linear-gradient-34);
      }

      .cls-103 {
        fill: url(#linear-gradient-118);
      }

      .cls-104 {
        fill: url(#linear-gradient-65);
      }

      .cls-105 {
        fill: url(#linear-gradient-70);
      }

      .cls-106 {
        fill: #2e2e2e;
      }

      .cls-107 {
        fill: url(#linear-gradient-79);
      }

      .cls-108 {
        fill: #def0fc;
      }

      .cls-109 {
        fill: url(#linear-gradient-88);
      }

      .cls-110 {
        fill: url(#linear-gradient-7);
      }

      .cls-111 {
        fill: url(#linear-gradient-66);
      }

      .cls-112 {
        fill: #ff9e0c;
      }

      .cls-113 {
        fill: url(#linear-gradient-96);
      }

      .cls-114 {
        fill: url(#linear-gradient-24);
      }

      .cls-115 {
        fill: url(#linear-gradient-73);
      }

      .cls-116 {
        fill: url(#linear-gradient-100);
      }

      .cls-117 {
        fill: url(#linear-gradient-105);
      }

      .cls-118 {
        fill: url(#linear-gradient-9);
      }

      .cls-119 {
        fill: url(#linear-gradient-22);
      }

      .cls-120 {
        fill: url(#linear-gradient-74);
      }

      .cls-121 {
        fill: url(#linear-gradient-42);
      }

      .cls-122 {
        fill: url(#linear-gradient-99);
      }

      .cls-123 {
        fill: url(#linear-gradient-3);
      }

      .cls-124 {
        fill: url(#linear-gradient-123);
      }

      .cls-125 {
        fill: #c9e4f2;
        mix-blend-mode: multiply;
      }

      .cls-126 {
        fill: url(#linear-gradient);
      }

      .cls-127 {
        fill: url(#linear-gradient-27);
      }

      .cls-128 {
        fill: url(#linear-gradient-116);
      }

      .cls-129 {
        fill: #a4f04f;
      }

      .cls-130 {
        fill: url(#linear-gradient-33);
      }

      .cls-131 {
        fill: url(#linear-gradient-38);
      }

      .cls-132 {
        fill: url(#linear-gradient-94);
      }

      .cls-133 {
        fill: url(#linear-gradient-29);
      }

      .cls-134 {
        fill: url(#linear-gradient-30);
      }

      .cls-135 {
        fill: #ffe04d;
      }

      .cls-136 {
        fill: url(#linear-gradient-23);
      }

      .cls-137 {
        fill: url(#linear-gradient-19);
      }

      .cls-138 {
        fill: url(#linear-gradient-71);
      }

      .cls-139 {
        fill: url(#linear-gradient-4);
      }

      .cls-140 {
        fill: url(#linear-gradient-77);
      }

      .cls-141 {
        fill: url(#linear-gradient-115);
      }

      .cls-142 {
        fill: url(#linear-gradient-8);
      }

      .cls-143 {
        fill: url(#linear-gradient-90);
      }

      .cls-144 {
        fill: url(#linear-gradient-44);
      }

      .cls-145 {
        fill: url(#linear-gradient-57);
      }

      .cls-146 {
        fill: url(#linear-gradient-47);
      }

      .cls-147 {
        fill: url(#linear-gradient-46);
      }

      .cls-148 {
        fill: url(#linear-gradient-12);
      }

      .cls-149 {
        fill: url(#linear-gradient-13);
      }

      .cls-150 {
        fill: url(#linear-gradient-26);
      }

      .cls-151 {
        fill: url(#linear-gradient-101);
      }
    </style>
    <linearGradient id="linear-gradient" x1="282.18" y1="50.94" x2="287.79" y2="220.12" gradientUnits="userSpaceOnUse">
      <stop offset="0" stop-color="#ffd924"/>
      <stop offset="1" stop-color="#ff961a"/>
    </linearGradient>
    <linearGradient id="linear-gradient-2" x1="294.44" y1="215.61" x2="328.37" y2="215.61" gradientUnits="userSpaceOnUse">
      <stop offset="0" stop-color="#f7c97e"/>
      <stop offset="1" stop-color="#cf8553"/>
    </linearGradient>
    <linearGradient id="linear-gradient-3" x1="374.45" y1="179.68" x2="336.79" y2="248.21" gradientUnits="userSpaceOnUse">
      <stop offset="0" stop-color="#f7c97e"/>
      <stop offset="1" stop-color="#d79659"/>
    </linearGradient>
    <linearGradient id="linear-gradient-4" x1="347.19" y1="216.26" x2="334.65" y2="239.08" gradientUnits="userSpaceOnUse">
      <stop offset="0" stop-color="#b8704b"/>
      <stop offset="1" stop-color="#a86644"/>
    </linearGradient>
    <linearGradient id="linear-gradient-5" x1="294.45" y1="197.41" x2="328.37" y2="197.41" gradientUnits="userSpaceOnUse">
      <stop offset="0" stop-color="#ffe88f"/>
      <stop offset="1" stop-color="#f7a36a"/>
    </linearGradient>
    <linearGradient id="linear-gradient-6" x1="369.17" y1="171.08" x2="344.39" y2="216.18" xlink:href="#linear-gradient-5"/>
    <linearGradient id="linear-gradient-7" x1="355.04" y1="155.93" x2="324.87" y2="209.96" xlink:href="#linear-gradient-3"/>
    <linearGradient id="linear-gradient-8" x1="354.41" y1="155.82" x2="324.49" y2="209.4" gradientUnits="userSpaceOnUse">
      <stop offset="0" stop-color="#d17f55"/>
      <stop offset="1" stop-color="#995d3e"/>
    </linearGradient>
    <linearGradient id="linear-gradient-9" x1="313.61" y1="199" x2="307.27" y2="210.36" xlink:href="#linear-gradient-8"/>
    <linearGradient id="linear-gradient-10" x1="311.1" y1="196.7" x2="310.59" y2="197.63" gradientUnits="userSpaceOnUse">
      <stop offset="0" stop-color="#ff9c69"/>
      <stop offset="1" stop-color="#e0885a"/>
    </linearGradient>
    <linearGradient id="linear-gradient-11" x1="295.87" y1="172.97" x2="329.8" y2="172.97" xlink:href="#linear-gradient-2"/>
    <linearGradient id="linear-gradient-12" x1="375.87" y1="137.04" x2="338.22" y2="205.57" xlink:href="#linear-gradient-3"/>
    <linearGradient id="linear-gradient-13" x1="348.61" y1="173.62" x2="336.07" y2="196.44" xlink:href="#linear-gradient-4"/>
    <linearGradient id="linear-gradient-14" x1="295.87" y1="154.77" x2="329.79" y2="154.77" xlink:href="#linear-gradient-5"/>
    <linearGradient id="linear-gradient-15" x1="370.6" y1="128.45" x2="345.81" y2="173.54" xlink:href="#linear-gradient-5"/>
    <linearGradient id="linear-gradient-16" x1="356.47" y1="113.29" x2="326.3" y2="167.32" xlink:href="#linear-gradient-3"/>
    <linearGradient id="linear-gradient-17" x1="355.83" y1="113.18" x2="325.91" y2="166.76" xlink:href="#linear-gradient-8"/>
    <linearGradient id="linear-gradient-18" x1="315.04" y1="156.36" x2="308.69" y2="167.72" xlink:href="#linear-gradient-8"/>
    <linearGradient id="linear-gradient-19" x1="312.53" y1="154.06" x2="312.01" y2="154.99" xlink:href="#linear-gradient-10"/>
    <linearGradient id="linear-gradient-20" x1="337.48" y1="232.48" x2="371.41" y2="232.48" xlink:href="#linear-gradient-2"/>
    <linearGradient id="linear-gradient-21" x1="417.48" y1="196.55" x2="379.83" y2="265.08" xlink:href="#linear-gradient-3"/>
    <linearGradient id="linear-gradient-22" x1="390.22" y1="233.13" x2="377.68" y2="255.95" xlink:href="#linear-gradient-4"/>
    <linearGradient id="linear-gradient-23" x1="337.48" y1="214.28" x2="371.4" y2="214.28" xlink:href="#linear-gradient-5"/>
    <linearGradient id="linear-gradient-24" x1="412.21" y1="187.95" x2="387.42" y2="233.05" xlink:href="#linear-gradient-5"/>
    <linearGradient id="linear-gradient-25" x1="398.08" y1="172.8" x2="367.91" y2="226.83" xlink:href="#linear-gradient-3"/>
    <linearGradient id="linear-gradient-26" x1="397.44" y1="172.69" x2="367.52" y2="226.27" xlink:href="#linear-gradient-8"/>
    <linearGradient id="linear-gradient-27" x1="356.65" y1="215.87" x2="350.3" y2="227.23" xlink:href="#linear-gradient-8"/>
    <linearGradient id="linear-gradient-28" x1="354.14" y1="213.57" x2="353.62" y2="214.5" xlink:href="#linear-gradient-10"/>
    <linearGradient id="linear-gradient-29" x1="337.48" y1="193.47" x2="371.41" y2="193.47" xlink:href="#linear-gradient-2"/>
    <linearGradient id="linear-gradient-30" x1="417.48" y1="157.54" x2="379.83" y2="226.07" xlink:href="#linear-gradient-3"/>
    <linearGradient id="linear-gradient-31" x1="390.22" y1="194.12" x2="377.68" y2="216.94" xlink:href="#linear-gradient-4"/>
    <linearGradient id="linear-gradient-32" x1="337.48" y1="175.27" x2="371.4" y2="175.27" xlink:href="#linear-gradient-5"/>
    <linearGradient id="linear-gradient-33" x1="412.21" y1="148.95" x2="387.42" y2="194.04" xlink:href="#linear-gradient-5"/>
    <linearGradient id="linear-gradient-34" x1="398.08" y1="133.79" x2="367.91" y2="187.82" xlink:href="#linear-gradient-3"/>
    <linearGradient id="linear-gradient-35" x1="397.44" y1="133.68" x2="367.52" y2="187.26" xlink:href="#linear-gradient-8"/>
    <linearGradient id="linear-gradient-36" x1="356.65" y1="176.86" x2="350.3" y2="188.22" xlink:href="#linear-gradient-8"/>
    <linearGradient id="linear-gradient-37" x1="354.14" y1="174.56" x2="353.62" y2="175.49" xlink:href="#linear-gradient-10"/>
    <linearGradient id="linear-gradient-38" x1="320.42" y1="144.54" x2="354.34" y2="144.54" xlink:href="#linear-gradient-2"/>
    <linearGradient id="linear-gradient-39" x1="400.42" y1="108.61" x2="362.77" y2="177.14" xlink:href="#linear-gradient-3"/>
    <linearGradient id="linear-gradient-40" x1="373.16" y1="145.19" x2="360.62" y2="168.01" xlink:href="#linear-gradient-4"/>
    <linearGradient id="linear-gradient-41" x1="320.42" y1="126.34" x2="354.34" y2="126.34" xlink:href="#linear-gradient-5"/>
    <linearGradient id="linear-gradient-42" x1="395.14" y1="100.02" x2="370.36" y2="145.12" xlink:href="#linear-gradient-5"/>
    <linearGradient id="linear-gradient-43" x1="381.01" y1="84.86" x2="350.84" y2="138.89" xlink:href="#linear-gradient-3"/>
    <linearGradient id="linear-gradient-44" x1="380.38" y1="84.75" x2="350.46" y2="138.33" xlink:href="#linear-gradient-8"/>
    <linearGradient id="linear-gradient-45" x1="339.58" y1="127.93" x2="333.24" y2="139.29" xlink:href="#linear-gradient-8"/>
    <linearGradient id="linear-gradient-46" x1="337.07" y1="125.63" x2="336.56" y2="126.56" xlink:href="#linear-gradient-10"/>
    <linearGradient id="linear-gradient-47" x1="171.93" y1="284.89" x2="150.68" y2="253.31" gradientUnits="userSpaceOnUse">
      <stop offset="0" stop-color="#f7f7f7"/>
      <stop offset=".3" stop-color="#f3f5f6"/>
      <stop offset=".59" stop-color="#e7eff5"/>
      <stop offset=".88" stop-color="#d3e6f3"/>
      <stop offset="1" stop-color="#c9e2f2"/>
    </linearGradient>
    <linearGradient id="linear-gradient-48" x1="132.75" y1="182.91" x2="148.02" y2="276.19" xlink:href="#linear-gradient-47"/>
    <linearGradient id="linear-gradient-49" x1="24.08" y1="295.13" x2="350.08" y2="104.46" xlink:href="#linear-gradient-47"/>
    <linearGradient id="linear-gradient-50" x1="152.4" y1="213.31" x2="99.9" y2="22.81" gradientUnits="userSpaceOnUse">
      <stop offset="0" stop-color="#99f7ff"/>
      <stop offset="1" stop-color="#0a9dfd"/>
    </linearGradient>
    <linearGradient id="linear-gradient-51" x1="17.75" y1="142.62" x2="20.07" y2="160.31" gradientUnits="userSpaceOnUse">
      <stop offset="0" stop-color="#3d9fff"/>
      <stop offset="1" stop-color="#3f60ba"/>
    </linearGradient>
    <linearGradient id="linear-gradient-52" x1="73.66" y1="106.51" x2="97" y2="106.51" gradientUnits="userSpaceOnUse">
      <stop offset="0" stop-color="#fff"/>
      <stop offset="1" stop-color="#dae1f2"/>
    </linearGradient>
    <linearGradient id="linear-gradient-53" x1="91.63" y1="96.55" x2="114.98" y2="96.55" xlink:href="#linear-gradient-52"/>
    <linearGradient id="linear-gradient-54" x1="19.73" y1="136.39" x2="43.07" y2="136.39" xlink:href="#linear-gradient-52"/>
    <linearGradient id="linear-gradient-55" x1="109.6" y1="86.58" x2="132.96" y2="86.58" xlink:href="#linear-gradient-52"/>
    <linearGradient id="linear-gradient-56" x1="55.68" y1="116.47" x2="79.02" y2="116.47" xlink:href="#linear-gradient-52"/>
    <linearGradient id="linear-gradient-57" x1="37.71" y1="126.43" x2="61.04" y2="126.43" xlink:href="#linear-gradient-52"/>
    <linearGradient id="linear-gradient-58" x1="199.47" y1="36.77" x2="222.85" y2="36.77" xlink:href="#linear-gradient-52"/>
    <linearGradient id="linear-gradient-59" x1="181.5" y1="46.74" x2="204.87" y2="46.74" xlink:href="#linear-gradient-52"/>
    <linearGradient id="linear-gradient-60" x1="217.45" y1="26.81" x2="240.83" y2="26.81" xlink:href="#linear-gradient-52"/>
    <linearGradient id="linear-gradient-61" x1="127.58" y1="76.62" x2="150.93" y2="76.62" xlink:href="#linear-gradient-52"/>
    <linearGradient id="linear-gradient-62" x1="82.64" y1="101.53" x2="105.99" y2="101.53" xlink:href="#linear-gradient-51"/>
    <linearGradient id="linear-gradient-63" x1="64.67" y1="111.49" x2="88.01" y2="111.49" xlink:href="#linear-gradient-51"/>
    <linearGradient id="linear-gradient-64" x1="100.62" y1="91.56" x2="123.97" y2="91.56" xlink:href="#linear-gradient-51"/>
    <linearGradient id="linear-gradient-65" x1="10.75" y1="141.37" x2="34.08" y2="141.37" xlink:href="#linear-gradient-51"/>
    <linearGradient id="linear-gradient-66" x1="28.72" y1="131.41" x2="52.06" y2="131.41" xlink:href="#linear-gradient-51"/>
    <linearGradient id="linear-gradient-67" x1="46.7" y1="121.45" x2="70.03" y2="121.45" xlink:href="#linear-gradient-51"/>
    <linearGradient id="linear-gradient-68" x1="154.54" y1="61.68" x2="177.9" y2="61.68" xlink:href="#linear-gradient-51"/>
    <linearGradient id="linear-gradient-69" x1="190.49" y1="41.76" x2="213.86" y2="41.76" xlink:href="#linear-gradient-51"/>
    <linearGradient id="linear-gradient-70" x1="208.46" y1="31.79" x2="231.84" y2="31.79" xlink:href="#linear-gradient-51"/>
    <linearGradient id="linear-gradient-71" x1="226.44" y1="21.82" x2="249.75" y2="21.82" xlink:href="#linear-gradient-51"/>
    <linearGradient id="linear-gradient-72" x1="118.59" y1="81.6" x2="141.95" y2="81.6" xlink:href="#linear-gradient-51"/>
    <linearGradient id="linear-gradient-73" x1="172.51" y1="51.72" x2="195.88" y2="51.72" xlink:href="#linear-gradient-51"/>
    <linearGradient id="linear-gradient-74" x1="136.57" y1="71.64" x2="159.92" y2="71.64" xlink:href="#linear-gradient-51"/>
    <linearGradient id="linear-gradient-75" x1="163.53" y1="56.7" x2="186.89" y2="56.7" xlink:href="#linear-gradient-52"/>
    <linearGradient id="linear-gradient-76" x1="145.55" y1="66.66" x2="168.91" y2="66.66" xlink:href="#linear-gradient-52"/>
    <linearGradient id="linear-gradient-77" x1="236.27" y1="33.75" x2="236.27" y2="52.35" xlink:href="#linear-gradient-52"/>
    <linearGradient id="linear-gradient-78" x1="146.42" y1="83.53" x2="146.42" y2="102.12" xlink:href="#linear-gradient-52"/>
    <linearGradient id="linear-gradient-79" x1="164.38" y1="73.57" x2="164.38" y2="92.17" xlink:href="#linear-gradient-52"/>
    <linearGradient id="linear-gradient-80" x1="182.36" y1="63.62" x2="182.36" y2="82.21" xlink:href="#linear-gradient-52"/>
    <linearGradient id="linear-gradient-81" x1="200.32" y1="53.66" x2="200.32" y2="72.26" xlink:href="#linear-gradient-52"/>
    <linearGradient id="linear-gradient-82" x1="218.3" y1="43.71" x2="218.3" y2="62.3" xlink:href="#linear-gradient-52"/>
    <linearGradient id="linear-gradient-83" x1="92.5" y1="113.39" x2="92.5" y2="131.99" xlink:href="#linear-gradient-52"/>
    <linearGradient id="linear-gradient-84" x1="110.48" y1="103.43" x2="110.48" y2="122.03" xlink:href="#linear-gradient-52"/>
    <linearGradient id="linear-gradient-85" x1="128.44" y1="93.48" x2="128.44" y2="112.08" xlink:href="#linear-gradient-52"/>
    <linearGradient id="linear-gradient-86" x1="74.53" y1="123.35" x2="74.53" y2="141.94" xlink:href="#linear-gradient-52"/>
    <linearGradient id="linear-gradient-87" x1="38.59" y1="143.26" x2="38.59" y2="161.85" xlink:href="#linear-gradient-52"/>
    <linearGradient id="linear-gradient-88" x1="56.56" y1="133.3" x2="56.56" y2="151.9" xlink:href="#linear-gradient-52"/>
    <linearGradient id="linear-gradient-89" x1="245.25" y1="28.77" x2="245.25" y2="47.37" xlink:href="#linear-gradient-51"/>
    <linearGradient id="linear-gradient-90" x1="227.28" y1="38.73" x2="227.28" y2="57.33" xlink:href="#linear-gradient-51"/>
    <linearGradient id="linear-gradient-91" x1="137.43" y1="88.5" x2="137.43" y2="107.1" xlink:href="#linear-gradient-51"/>
    <linearGradient id="linear-gradient-92" x1="155.4" y1="78.55" x2="155.4" y2="97.14" xlink:href="#linear-gradient-51"/>
    <linearGradient id="linear-gradient-93" x1="173.37" y1="68.59" x2="173.37" y2="87.19" xlink:href="#linear-gradient-51"/>
    <linearGradient id="linear-gradient-94" x1="191.34" y1="58.64" x2="191.34" y2="77.23" xlink:href="#linear-gradient-51"/>
    <linearGradient id="linear-gradient-95" x1="209.31" y1="48.68" x2="209.31" y2="67.28" xlink:href="#linear-gradient-51"/>
    <linearGradient id="linear-gradient-96" x1="101.49" y1="108.41" x2="101.49" y2="127.01" xlink:href="#linear-gradient-51"/>
    <linearGradient id="linear-gradient-97" x1="119.46" y1="98.46" x2="119.46" y2="117.05" xlink:href="#linear-gradient-51"/>
    <linearGradient id="linear-gradient-98" x1="83.52" y1="118.37" x2="83.52" y2="136.97" xlink:href="#linear-gradient-51"/>
    <linearGradient id="linear-gradient-99" x1="47.58" y1="138.28" x2="47.58" y2="156.88" xlink:href="#linear-gradient-51"/>
    <linearGradient id="linear-gradient-100" x1="65.55" y1="128.32" x2="65.55" y2="146.92" xlink:href="#linear-gradient-51"/>
    <linearGradient id="linear-gradient-101" x1="29.61" y1="148.24" x2="29.61" y2="166.83" xlink:href="#linear-gradient-51"/>
    <linearGradient id="linear-gradient-102" x1="25.1" y1="91.35" x2="249.73" y2="91.35" xlink:href="#linear-gradient-52"/>
    <linearGradient id="linear-gradient-103" x1="272.37" y1="153.34" x2="218.26" y2="198.34" gradientUnits="userSpaceOnUse">
      <stop offset="0" stop-color="#ffd924"/>
      <stop offset="1" stop-color="#ffb908"/>
    </linearGradient>
    <linearGradient id="linear-gradient-104" x1="270.65" y1="236.91" x2="189.67" y2="270.06" gradientUnits="userSpaceOnUse">
      <stop offset="0" stop-color="#a4f04f"/>
      <stop offset="1" stop-color="#80bb3e"/>
    </linearGradient>
    <linearGradient id="linear-gradient-105" x1="270.65" y1="236.91" x2="189.67" y2="270.06" xlink:href="#linear-gradient-104"/>
    <linearGradient id="linear-gradient-106" x1="270.65" y1="234.08" x2="189.67" y2="267.22" xlink:href="#linear-gradient-104"/>
    <linearGradient id="linear-gradient-107" x1="270.65" y1="234.08" x2="189.67" y2="267.22" xlink:href="#linear-gradient-104"/>
    <linearGradient id="linear-gradient-108" x1="270.65" y1="231.25" x2="189.67" y2="264.39" xlink:href="#linear-gradient-104"/>
    <linearGradient id="linear-gradient-109" x1="270.65" y1="231.25" x2="189.67" y2="264.39" xlink:href="#linear-gradient-104"/>
    <linearGradient id="linear-gradient-110" x1="270.65" y1="228.41" x2="189.67" y2="261.56" xlink:href="#linear-gradient-104"/>
    <linearGradient id="linear-gradient-111" x1="270.65" y1="228.41" x2="189.67" y2="261.56" xlink:href="#linear-gradient-104"/>
    <linearGradient id="linear-gradient-112" x1="270.65" y1="225.58" x2="189.67" y2="258.72" xlink:href="#linear-gradient-104"/>
    <linearGradient id="linear-gradient-113" x1="270.65" y1="225.58" x2="189.67" y2="258.72" xlink:href="#linear-gradient-104"/>
    <linearGradient id="linear-gradient-114" x1="207.93" y1="218.86" x2="264.33" y2="218.86" xlink:href="#linear-gradient-8"/>
    <linearGradient id="linear-gradient-115" x1="215.39" y1="244.74" x2="215.39" y2="225.93" xlink:href="#linear-gradient-8"/>
    <linearGradient id="linear-gradient-116" x1="171.4" y1="173.81" x2="168" y2="166.34" gradientUnits="userSpaceOnUse">
      <stop offset="0" stop-color="#ffb597"/>
      <stop offset="1" stop-color="#ffccb7"/>
    </linearGradient>
    <linearGradient id="linear-gradient-117" x1="177.73" y1="266.42" x2="174.33" y2="258.96" gradientTransform="translate(22.76 -109.85) rotate(5.83)" xlink:href="#linear-gradient-116"/>
    <linearGradient id="linear-gradient-118" x1="209.91" y1="424.58" x2="206.51" y2="417.11" gradientTransform="translate(88.69 -293.22) rotate(16.04)" xlink:href="#linear-gradient-116"/>
    <linearGradient id="linear-gradient-119" x1="231.47" y1="485.92" x2="228.06" y2="478.45" gradientTransform="translate(124.14 -363.32) rotate(20.14)" xlink:href="#linear-gradient-116"/>
    <linearGradient id="linear-gradient-120" x1="176.04" y1="175.86" x2="171.13" y2="172.05" xlink:href="#linear-gradient-116"/>
    <linearGradient id="linear-gradient-121" x1="189.1" y1="176.13" x2="176.73" y2="172.51" gradientUnits="userSpaceOnUse">
      <stop offset="0" stop-color="#942837"/>
      <stop offset="1" stop-color="#bb3345"/>
    </linearGradient>
    <linearGradient id="linear-gradient-122" x1="186.58" y1="207.81" x2="213.81" y2="178.91" xlink:href="#linear-gradient-121"/>
    <linearGradient id="linear-gradient-123" x1="215.45" y1="143.75" x2="200.24" y2="131.94" xlink:href="#linear-gradient-116"/>
    <linearGradient id="linear-gradient-124" x1="190.89" y1="224.11" x2="182.63" y2="217.71" xlink:href="#linear-gradient-116"/>
  </defs>
  <g class="cls-37">
    <g id="Layer_2" data-name="Layer 2">
      <g id="OBJECTS">
        <g>
          <path class="cls-126" d="M301.17,67.82c2.03,3.36,3.68,8.72,3.68,11.92v76.14c0,3.19-2.29,4.5-5.08,2.89l-31.57-18.23c-2.78-1.6-5.05-5.54-5.04-8.73V55.67c0-3.2,1.69-6.64,3.73-7.64l13.48-6.61c1.02-.5,2.37-.27,3.71,.51,1.34,.78,2.69,2.1,3.7,3.77l13.4,22.12Zm-17.15-9c2.06,1.19,3.74,.23,3.75-2.14,0-2.37-1.66-5.26-3.72-6.45-2.06-1.19-3.74-.23-3.75,2.14,0,2.37,1.66,5.26,3.72,6.45"/>
          <g>
            <path class="cls-106" d="M295.36,119.7c1.07,2.08,1.59,4.38,1.59,6.9,0,2.61-.53,4.34-1.56,5.17-1.04,.84-2.5,.72-4.38-.37-1.79-1.03-3.2-2.59-4.24-4.67-1.04-2.09-1.55-4.39-1.54-6.9,0-2.62,.52-4.34,1.54-5.17,1.02-.83,2.45-.71,4.29,.35,1.81,1.05,3.25,2.61,4.32,4.7Zm-3.36,6.95c.17-.6,.26-1.5,.26-2.69,0-1.19-.08-2.18-.25-2.98-.17-.81-.48-1.33-.93-1.58-.4-.23-.71-.1-.89,.42-.2,.5-.29,1.44-.3,2.78,0,1.37,.09,2.42,.29,3.14,.2,.72,.49,1.2,.88,1.43,.45,.26,.75,.08,.93-.51"/>
            <path class="cls-106" d="M278.12,111.41c-1.03,.84-2.5,.71-4.4-.39-1.78-1.03-3.2-2.58-4.23-4.67-1.04-2.09-1.55-4.4-1.55-6.92,0-2.62,.52-4.35,1.55-5.17,1.02-.83,2.45-.71,4.28,.35,1.82,1.05,3.26,2.61,4.32,4.69,1.07,2.08,1.6,4.39,1.59,6.9,0,2.63-.53,4.36-1.56,5.2Zm-3.44-5.03c.2-.48,.29-1.43,.3-2.82,0-1.37-.09-2.41-.28-3.13-.19-.72-.48-1.19-.87-1.42-.41-.23-.71-.1-.9,.41-.2,.51-.29,1.43-.3,2.79,0,1.37,.09,2.42,.29,3.14,.2,.72,.49,1.2,.89,1.42,.39,.23,.69,.1,.88-.39"/>
            <polygon class="cls-106" points="286.42 102.29 291.04 104.96 278.35 123.82 273.73 121.15 286.42 102.29"/>
          </g>
          <g>
            <polygon class="cls-3" points="294.44 187.04 294.45 224.47 328.37 244.18 328.37 206.75 294.44 187.04"/>
            <polygon class="cls-123" points="328.37 206.75 328.37 244.18 389.65 208.8 389.65 171.37 328.37 206.75"/>
            <polygon class="cls-139" points="331.84 225.28 331.85 237.74 352.25 225.96 352.25 213.5 331.84 225.28"/>
            <polygon class="cls-95" points="294.45 187.04 294.45 188.06 328.37 207.78 328.37 206.75 294.45 187.04"/>
            <polygon class="cls-35" points="328.37 206.75 328.37 207.78 389.65 172.4 389.65 171.37 328.37 206.75"/>
            <polygon class="cls-110" points="294.44 187.04 328.37 206.75 389.65 171.37 355.72 151.66 294.44 187.04"/>
            <polygon class="cls-142" points="314.83 198.88 376.11 163.5 368.21 158.91 306.93 194.29 314.83 198.88"/>
            <polygon class="cls-118" points="314.83 213.5 314.83 198.88 306.93 194.29 306.93 208.9 314.83 213.5"/>
            <polygon class="cls-67" points="306.93 195.32 314.83 199.91 314.83 198.88 312.52 197.54 306.93 194.29 306.93 195.32"/>
          </g>
          <g>
            <polygon class="cls-54" points="295.87 144.4 295.87 181.83 329.8 201.54 329.79 164.11 295.87 144.4"/>
            <polygon class="cls-148" points="329.79 164.11 329.8 201.54 391.08 166.16 391.07 128.73 329.79 164.11"/>
            <polygon class="cls-149" points="333.27 182.64 333.27 195.1 353.67 183.32 353.67 170.86 333.27 182.64"/>
            <polygon class="cls-31" points="295.87 144.4 295.87 145.42 329.79 165.14 329.79 164.11 295.87 144.4"/>
            <polygon class="cls-20" points="329.8 164.11 329.8 165.14 391.07 129.76 391.07 128.73 329.8 164.11"/>
            <polygon class="cls-74" points="295.87 144.4 329.79 164.11 391.07 128.73 357.15 109.02 295.87 144.4"/>
            <polygon class="cls-7" points="316.26 156.25 377.54 120.87 369.63 116.27 308.35 151.65 316.26 156.25"/>
            <polygon class="cls-24" points="316.26 170.86 316.26 156.25 308.35 151.65 308.35 166.26 316.26 170.86"/>
            <polygon class="cls-137" points="308.35 152.68 316.26 157.27 316.26 156.25 313.94 154.9 308.35 151.65 308.35 152.68"/>
          </g>
          <g>
            <polygon class="cls-34" points="337.48 203.91 337.48 241.34 371.41 261.05 371.4 223.62 337.48 203.91"/>
            <polygon class="cls-89" points="371.4 223.62 371.41 261.05 432.69 225.67 432.68 188.24 371.4 223.62"/>
            <polygon class="cls-119" points="374.88 242.15 374.88 254.61 395.28 242.83 395.28 230.37 374.88 242.15"/>
            <polygon class="cls-136" points="337.48 203.91 337.48 204.93 371.4 224.65 371.4 223.62 337.48 203.91"/>
            <polygon class="cls-114" points="371.41 223.62 371.41 224.65 432.68 189.27 432.68 188.24 371.41 223.62"/>
            <polygon class="cls-92" points="337.48 203.91 371.4 223.62 432.68 188.24 398.76 168.53 337.48 203.91"/>
            <polygon class="cls-150" points="357.87 215.75 419.15 180.37 411.24 175.78 349.96 211.16 357.87 215.75"/>
            <polygon class="cls-127" points="357.87 230.37 357.87 215.75 349.96 211.16 349.96 225.77 357.87 230.37"/>
            <polygon class="cls-30" points="349.96 212.19 357.87 216.78 357.87 215.75 355.55 214.41 349.96 211.16 349.96 212.19"/>
          </g>
          <g>
            <polygon class="cls-133" points="337.48 164.9 337.48 202.33 371.41 222.04 371.4 184.61 337.48 164.9"/>
            <polygon class="cls-134" points="371.4 184.61 371.41 222.04 432.69 186.67 432.68 149.23 371.4 184.61"/>
            <polygon class="cls-75" points="374.88 203.14 374.88 215.6 395.28 203.82 395.28 191.36 374.88 203.14"/>
            <polygon class="cls-49" points="337.48 164.9 337.48 165.92 371.4 185.64 371.4 184.61 337.48 164.9"/>
            <polygon class="cls-130" points="371.41 184.61 371.41 185.64 432.68 150.26 432.68 149.23 371.41 184.61"/>
            <polygon class="cls-102" points="337.48 164.9 371.4 184.61 432.68 149.23 398.76 129.52 337.48 164.9"/>
            <polygon class="cls-47" points="357.87 176.75 419.15 141.37 411.24 136.77 349.96 172.15 357.87 176.75"/>
            <polygon class="cls-32" points="357.87 191.36 357.87 176.75 349.96 172.15 349.96 186.76 357.87 191.36"/>
            <polygon class="cls-72" points="349.96 173.18 357.87 177.77 357.87 176.75 355.55 175.4 349.96 172.15 349.96 173.18"/>
          </g>
          <polygon class="cls-131" points="320.42 115.97 320.42 153.4 354.34 173.12 354.34 135.68 320.42 115.97"/>
          <polygon class="cls-62" points="354.34 135.68 354.34 173.12 415.62 137.74 415.62 100.3 354.34 135.68"/>
          <polygon class="cls-28" points="357.82 154.21 357.82 166.67 378.22 154.89 378.22 142.43 357.82 154.21"/>
          <polygon class="cls-84" points="320.42 115.97 320.42 116.99 354.34 136.71 354.34 135.68 320.42 115.97"/>
          <polygon class="cls-121" points="354.34 135.68 354.34 136.71 415.62 101.33 415.62 100.3 354.34 135.68"/>
          <polygon class="cls-15" points="320.42 115.97 354.34 135.68 415.62 100.3 381.7 80.59 320.42 115.97"/>
          <polygon class="cls-144" points="340.8 127.82 402.08 92.44 394.18 87.84 332.9 123.22 340.8 127.82"/>
          <polygon class="cls-99" points="340.8 142.43 340.8 127.82 332.9 123.22 332.9 137.83 340.8 142.43"/>
          <polygon class="cls-147" points="332.9 124.25 340.8 128.84 340.8 127.82 338.49 126.47 332.9 123.22 332.9 124.25"/>
          <g>
            <polygon class="cls-66" points="204.08 267.79 204.08 264.58 201.57 265.81 204.08 267.79"/>
            <path class="cls-66" d="M159.99,294.46c.47-.27,1.89-1.1,3.92-2.28l7.97-4.63c12.21-7.1,29.51-17.15,30.97-18,2.19-1.27,1.16-2.77-.64-3.8l-34.71-20.04-50.51,29.35,34.38,19.85c1.5,.87,5.77,1.2,8.61-.45Z"/>
            <polygon class="cls-52" points="115.04 266.79 165.55 237.44 167.51 242.38 117 271.73 115.04 266.79"/>
            <polygon class="cls-66" points="128.16 220.82 178.67 191.47 165.55 237.44 115.04 266.79 128.16 220.82"/>
            <polygon class="cls-18" points="129.02 216.84 179.53 187.48 181.05 191.1 130.54 220.45 129.02 216.84"/>
            <polygon class="cls-17" points="125.74 217.35 176.25 188 179.53 187.48 129.02 216.84 125.74 217.35"/>
            <polygon class="cls-41" points="129.02 216.84 130.54 220.45 128.16 220.82 115.04 266.79 117 271.73 151.14 291.43 151.14 294.77 115.38 274.05 112 265.5 125.74 217.35 129.02 216.84"/>
            <path class="cls-146" d="M159.99,291.13c.47-.27,1.89-1.1,3.92-2.28l7.97-4.63c12.21-7.1,29.51-17.15,30.97-18,2.19-1.27,1.16-2.77-.64-3.8l-34.71-20.04-50.51,29.35,34.38,19.85c1.5,.87,5.77,1.2,8.61-.45Z"/>
          </g>
          <path class="cls-65" d="M237.89,9.28c-.42-3.12-1.97-5.26-4.06-6.1,.02,0,.04,.01,.06,.02-1.92-.79-3.85-1.58-5.77-2.38-.34-.14-.68-.28-1.02-.42-1.67-.69-3.7-.54-5.78,.61L7.18,119.73c-4.65,2.58-7.82,9.21-7.07,14.8l18.78,140.45,6.69,2.1,231-128.04L237.89,9.28Z"/>
          <path class="cls-108" d="M25.59,277.07l231-128.04L237.89,9.28c-.39-2.89-1.75-4.93-3.62-5.88-.05-.02-.1-.04-.16-.06-.34-.14-.68-.28-1.02-.42-1.67-.69-3.7-.54-5.78,.61L13.18,122.24c-4.65,2.58-7.82,9.21-7.07,14.8l18.69,139.78,.78,.25Z"/>
          <path class="cls-48" d="M258.64,164.45l-2.06-15.42L25.59,277.07l-6.69-2.1,1.97,14.71c.41,3.09,1.94,5.22,4,6.08,2.26,.93,4.52,1.86,6.79,2.79-.07-.03-.14-.07-.21-.1,1.71,.79,3.81,.69,5.98-.51l214.14-118.7c4.65-2.58,7.82-9.21,7.07-14.8Z"/>
          <path class="cls-45" d="M237.89,9.28c-.75-5.6-5.13-8.04-9.78-5.46L13.97,122.53c-4.65,2.58-7.82,9.21-7.07,14.8l18.69,139.75,231-128.04L237.89,9.28Z"/>
          <path class="cls-71" d="M256.58,149.03L25.59,277.07l2.06,15.42c.75,5.6,5.13,8.04,9.78,5.46l214.14-118.7c4.65-2.58,7.82-9.21,7.07-14.8l-2.06-15.42Z"/>
          <polygon class="cls-55" points="10.75 134.5 235.45 9.93 253.81 146.09 29.1 270.67 10.75 134.5"/>
          <path class="cls-51" d="M82.37,230.4c-.61,.34-1.01,1.21-.9,1.94s.69,1.05,1.29,.72c.61-.34,1.02-1.2,.91-1.94-.11-.73-.69-1.06-1.3-.72Z"/>
          <path class="cls-51" d="M89.16,226.64c-.61,.34-1.01,1.21-.9,1.94,.11,.73,.68,1.05,1.29,.72,.61-.34,1.01-1.2,.91-1.94-.11-.73-.69-1.06-1.3-.72Z"/>
          <path class="cls-51" d="M95.95,222.87c-.6,.33-1.01,1.21-.9,1.94,.11,.73,.69,1.05,1.29,.72,.61-.34,1.02-1.2,.91-1.94-.11-.73-.69-1.06-1.3-.72Z"/>
          <path class="cls-5" d="M109.25,118.93c-.18-1.2-1.13-1.73-2.12-1.18l-69.68,38.63c-.99,.55-1.66,1.98-1.48,3.18l12.42,84.28c.18,1.2,1.13,1.73,2.12,1.18l69.68-38.63c.99-.55,1.66-1.98,1.48-3.18l-12.42-84.28Z"/>
          <path class="cls-51" d="M75.58,234.16c-.61,.34-1.01,1.21-.91,1.95s.68,1.05,1.3,.71c.61-.34,1.01-1.2,.9-1.93-.11-.73-.69-1.06-1.29-.73Z"/>
          <polygon class="cls-5" points="225.47 67.86 123.97 124.12 124.6 128.4 226.1 72.14 225.47 67.86"/>
          <polygon class="cls-5" points="182.75 102.91 125.8 134.48 126.12 136.63 183.06 105.06 182.75 102.91"/>
          <polygon class="cls-5" points="186.9 131.11 129.96 162.67 130.27 164.82 187.22 133.26 186.9 131.11"/>
          <polygon class="cls-5" points="131.34 172.07 131.66 174.21 188.6 142.65 188.29 140.51 131.34 172.07"/>
          <polygon class="cls-5" points="185.52 121.72 128.57 153.28 128.89 155.42 185.83 123.85 185.52 121.72"/>
          <polygon class="cls-5" points="184.13 112.31 127.19 143.88 127.5 146.02 184.45 114.45 184.13 112.31"/>
          <path class="cls-51" d="M177.04,158.07c-.18-1.2-1.12-1.73-2.12-1.18l-40.56,22.49c-.99,.55-1.65,1.97-1.47,3.17l1.97,13.35c.18,1.2,1.12,1.73,2.12,1.19l40.57-22.49c.99-.55,1.65-1.97,1.47-3.17l-1.97-13.36Z"/>
          <path class="cls-5" d="M148,175.88v-.04c-.04-.21-.21-.3-.38-.21l-1.33,.75c-.18,.1-.31,.34-.32,.58l-.06,1.48c-.16-.03-.33,0-.5,.1l-5.88,3.31c-.27,.15-.5,.45-.63,.81-.13,.37-.13,.76,0,1.07l1.53,3.57c.19,.44,.61,.59,1.01,.36l4.79-2.7c.2-.12,.41,0,.45,.27,.04,.24-.09,.53-.29,.64l-4.01,2.26c-.57,.32-.94,1.16-.81,1.87,.13,.71,.7,1.03,1.27,.71,.02-.01,.05-.03,.07-.04,.48-.32,.79-1.03,.74-1.66-.02-.21-.08-.39-.16-.54l1.2-.68c-.01,.15,0,.31,.02,.45,.13,.71,.7,1.03,1.26,.71,.02-.01,.05-.03,.07-.04,.5-.33,.81-1.06,.74-1.71-.02-.19-.08-.36-.15-.5,.54-.35,.87-1.17,.74-1.86-.11-.61-.54-.94-1.02-.82l.15-4.01,.11-2.9,1.14-.64c.17-.1,.27-.34,.23-.55Zm-5.74,5.38l.18,1-1.14,.64-.35-.91,1.31-.73Zm-2.71,1.87c-.04-.09-.02-.18,0-.24,.01-.05,.05-.14,.14-.18l.57-.32,.35,.9-.79,.45-.26-.61Zm.94,2.2l-.35-.82,.77-.43,.32,.83-.74,.42Zm.82,1.45c-.09,.05-.19,.02-.23-.08l-.26-.6,.71-.4,.31,.79-.53,.3Zm.3-3.1l.99-.56,.17,.92-.84,.47-.32-.83Zm.94,2.4l-.3-.79,.69-.39,.16,.87-.54,.31Zm.41-5.21l1.28-.72v1.1s-1.1,.62-1.1,.62l-.18-1Zm.34,1.86l.95-.54v1.02s-.78,.44-.78,.44l-.17-.92Zm.49,2.66l-.16-.87,.64-.36v.96s-.48,.27-.48,.27Zm1.88-1.26c0,.12-.07,.24-.16,.29l-.53,.3v-.96s.72-.41,.72-.41l-.03,.78Zm.07-1.75l-.77,.43v-1.01s.81-.46,.81-.46l-.04,1.04Zm.07-2.01l-.86,.49v-1.1s.64-.36,.64-.36c.08-.05,.15-.01,.17,.01,.03,.02,.08,.08,.08,.2l-.03,.77Zm-3.1,9.45c-.19,.1-.37,0-.41-.23-.04-.23,.07-.51,.26-.61,.19-.11,.37,0,.41,.23,.04,.23-.08,.51-.26,.61Zm3.14-1.77c-.18,.1-.37,0-.41-.23-.04-.23,.08-.51,.26-.61,.19-.11,.37,0,.41,.23,.04,.23-.08,.51-.26,.61Z"/>
          <g>
            <polygon class="cls-5" points="159.91 172.26 159.16 175.25 159.36 176.74 158.71 177.11 158.5 175.61 157.12 173.8 157.88 173.38 158.93 174.85 159.5 172.48 159.91 172.26"/>
            <path class="cls-5" d="M156.79,173.98l.34,2.53c.05,.39-.03,.82-.24,1.21-.22,.4-.56,.77-1.05,1.04-.4,.22-.74,.32-.99,.22-.26-.09-.43-.37-.5-.87l-.35-2.58,.66-.37,.36,2.66c.05,.39,.15,.57,.28,.63,.13,.06,.31-.02,.53-.14,.28-.16,.47-.33,.59-.52,.12-.19,.11-.45,.06-.79l-.35-2.64,.67-.37Z"/>
            <path class="cls-5" d="M153.6,178.1c.15,.11,.23,.31,.26,.56,.05,.35-.02,.67-.19,.97-.17,.3-.47,.58-.89,.82-.14,.08-.33,.18-.52,.27s-.4,.19-.53,.25l-.52-3.86c.13-.09,.28-.19,.45-.29,.16-.09,.33-.19,.48-.27,.36-.2,.67-.29,.9-.27,.23,.03,.38,.21,.42,.53,.04,.27,0,.5-.09,.71-.08,.21-.22,.38-.38,.52,.28-.08,.48-.05,.63,.07Zm-.43,1.4c.03-.13,.04-.28,0-.51-.07-.51-.36-.63-.84-.36l-.21,.12,.2,1.5,.05-.02,.1-.05,.09-.05c.08-.04,.18-.11,.27-.18,.1-.07,.17-.14,.21-.19s.09-.14,.11-.26m-1.26-2.41l.17,1.26,.22-.12c.15-.08,.32-.22,.4-.32,.03-.04,.07-.11,.09-.22,.02-.1,.02-.24,0-.42-.03-.24-.1-.36-.23-.4-.12-.03-.29,.01-.49,.13l-.16,.1"/>
            <polygon class="cls-5" points="162.35 170.9 162.88 174.8 162.22 175.16 161.69 171.26 162.35 170.9"/>
            <polygon class="cls-5" points="166.6 171.72 167.1 172.02 166.74 172.79 166.24 172.5 166.6 171.72"/>
            <polygon class="cls-5" points="166.72 171.38 166.4 171.55 165.85 168.96 166.56 168.57 166.72 171.38"/>
            <polygon class="cls-5" points="165.45 169.18 165.46 169.58 164.5 170.16 164.96 173.64 164.3 174.01 163.84 170.52 162.84 171.05 162.82 170.64 165.45 169.18"/>
          </g>
          <path class="cls-125" d="M33.92,168.74c0,2.03,1.44,2.88,3.21,1.9l2.67-1.48c1.77-.98,3.19-3.41,3.19-5.44,0,2.03,1.44,2.88,3.21,1.9l2.67-1.48c1.77-.98,3.19-3.41,3.18-5.44,0,2.03,1.44,2.88,3.21,1.9l2.66-1.47c1.77-.98,3.2-3.42,3.19-5.45,0,2.03,1.44,2.88,3.21,1.9l2.66-1.47c1.77-.98,3.19-3.41,3.19-5.44,0,2.03,1.45,2.88,3.21,1.9l2.67-1.48c1.77-.98,3.19-3.41,3.19-5.44,0,2.03,1.44,2.88,3.21,1.9l2.67-1.48c1.77-.98,3.19-3.41,3.19-5.44,0,2.03,1.44,2.88,3.21,1.9l2.67-1.48c1.77-.98,3.19-3.41,3.19-5.44,0,2.03,1.44,2.88,3.21,1.9l2.66-1.47c1.77-.98,3.2-3.42,3.19-5.45,0,2.03,1.44,2.88,3.21,1.9l2.66-1.47c1.77-.98,3.19-3.41,3.19-5.44,0,2.03,1.45,2.88,3.21,1.9l2.67-1.48c1.77-.98,3.19-3.41,3.19-5.44,0,2.03,1.44,2.88,3.21,1.9l2.67-1.48c1.77-.98,3.19-3.41,3.19-5.44,0,2.03,1.44,2.88,3.2,1.9l2.66-1.47c1.77-.98,3.2-3.42,3.19-5.45,0,2.03,1.44,2.88,3.2,1.9l2.66-1.47c1.77-.98,3.19-3.41,3.19-5.44,0,2.03,1.45,2.88,3.21,1.9l2.66-1.47c1.77-.98,3.19-3.41,3.19-5.44,0,2.03,1.44,2.88,3.21,1.9l2.67-1.48c1.77-.98,3.19-3.41,3.19-5.44,0,2.03,1.44,2.88,3.2,1.9l2.67-1.48c1.76-.98,3.19-3.41,3.18-5.44,0,2.03,1.44,2.88,3.21,1.9l2.66-1.47c1.77-.98,3.19-3.41,3.19-5.44,0,2.03,1.45,2.88,3.21,1.9l2.66-1.47c1.77-.98,3.19-3.41,3.19-5.44,0,2.03,1.44,2.88,3.21,1.9l2.67-1.48c1.77-.98,3.19-3.41,3.19-5.44,0,2.03,1.44,2.88,3.2,1.9l2.67-1.48c1.77-.98,3.19-3.41,3.19-5.44,0,2.03,1.44,2.88,3.21,1.9l2.66-1.47c1.77-.98,3.2-3.42,3.19-5.45,0,2.03,1.44,2.88,3.21,1.9l2.66-1.47c1.77-.98,3.19-3.41,3.19-5.44,0,2.03,1.45,2.88,3.21,1.9l2.66-1.47c1.06-.58,1.98-1.69,2.56-2.92l-2.19-16.25-5.87-28.63L10.75,134.5l6.26,46.45c.55,.21,1.24,.14,2-.28l2.66-1.47c1.77-.98,3.19-3.41,3.19-5.44,0,2.03,1.45,2.88,3.21,1.9l2.66-1.47c1.77-.98,3.19-3.41,3.19-5.44Z"/>
          <g class="cls-38">
            <polygon class="cls-26" points="235.45 9.93 104.83 82.34 231.94 158.22 253.81 146.09 235.45 9.93"/>
            <polygon class="cls-26" points="177.94 188.15 50.83 112.28 10.75 134.5 14.83 164.78 113.67 223.78 177.94 188.15"/>
          </g>
          <g>
            <polygon class="cls-4" points="10.75 134.5 25.09 153.23 25.1 162.74 13.66 156.14 10.75 134.5"/>
            <polygon class="cls-29" points="73.66 99.62 88.01 118.37 97 113.39 82.64 94.64 73.66 99.62"/>
            <polygon class="cls-36" points="91.63 89.66 105.99 108.41 114.98 103.44 100.62 84.68 91.63 89.66"/>
            <polygon class="cls-98" points="19.73 129.52 34.08 148.25 43.07 143.27 28.72 124.53 19.73 129.52"/>
            <polygon class="cls-101" points="109.6 79.69 123.97 98.46 132.96 93.48 118.59 74.71 109.6 79.69"/>
            <polygon class="cls-25" points="55.68 109.59 70.03 128.33 79.02 123.35 64.67 104.61 55.68 109.59"/>
            <polygon class="cls-145" points="37.71 119.55 52.06 138.29 61.04 133.31 46.7 114.57 37.71 119.55"/>
            <polygon class="cls-21" points="199.47 29.87 213.86 48.66 222.85 43.68 208.46 24.89 199.47 29.87"/>
            <polygon class="cls-68" points="181.5 39.84 195.88 58.62 204.87 53.64 190.49 34.85 181.5 39.84"/>
            <polygon class="cls-42" points="226.44 14.93 217.45 19.91 231.84 38.7 240.83 33.72 226.44 14.93"/>
            <polygon class="cls-78" points="127.58 69.73 141.95 88.5 150.93 83.52 136.57 64.75 127.58 69.73"/>
            <g>
              <polygon class="cls-82" points="82.64 94.64 97 113.39 105.99 108.41 91.63 89.66 82.64 94.64"/>
              <polygon class="cls-58" points="64.67 104.61 79.02 123.35 88.01 118.37 73.66 99.62 64.67 104.61"/>
              <polygon class="cls-96" points="100.62 84.68 114.98 103.44 123.97 98.46 109.6 79.69 100.62 84.68"/>
              <polygon class="cls-104" points="10.75 134.5 25.09 153.23 34.08 148.25 19.73 129.52 10.75 134.5"/>
              <polygon class="cls-111" points="28.72 124.53 43.07 143.27 52.06 138.29 37.71 119.55 28.72 124.53"/>
              <polygon class="cls-59" points="46.7 114.57 61.04 133.31 70.03 128.33 55.68 109.59 46.7 114.57"/>
              <polygon class="cls-80" points="154.54 54.78 168.91 73.56 177.9 68.58 163.53 49.8 154.54 54.78"/>
              <polygon class="cls-22" points="190.49 34.85 204.87 53.64 213.86 48.66 199.47 29.87 190.49 34.85"/>
              <polygon class="cls-105" points="208.46 24.89 222.85 43.68 231.84 38.7 217.45 19.91 208.46 24.89"/>
              <polygon class="cls-138" points="249.75 28.77 235.45 9.93 226.44 14.93 240.83 33.72 249.75 28.77"/>
              <polygon class="cls-90" points="118.59 74.71 132.96 93.48 141.95 88.5 127.58 69.73 118.59 74.71"/>
              <polygon class="cls-115" points="172.51 44.82 186.89 63.6 195.88 58.62 181.5 39.84 172.51 44.82"/>
              <polygon class="cls-120" points="136.57 64.75 150.93 83.52 159.92 78.54 145.55 59.77 136.57 64.75"/>
            </g>
            <polygon class="cls-1" points="163.53 49.8 177.9 68.58 186.89 63.6 172.51 44.82 163.53 49.8"/>
            <polygon class="cls-86" points="145.55 59.77 159.92 78.54 168.91 73.56 154.54 54.78 145.55 59.77"/>
            <g>
              <path class="cls-140" d="M231.76,38.73l.03,11.33c0,2.01,1.43,2.86,3.18,1.89l2.64-1.46c1.75-.97,3.16-3.39,3.16-5.4l-.03-11.33-8.98,4.97Z"/>
              <path class="cls-33" d="M141.91,88.5l.03,11.33c0,2.01,1.43,2.86,3.18,1.89l2.64-1.46c1.75-.97,3.17-3.39,3.17-5.4l-.03-11.33-8.99,4.98Z"/>
              <path class="cls-107" d="M159.87,78.55l.03,11.33c0,2.01,1.43,2.85,3.19,1.88l2.64-1.46c1.75-.97,3.16-3.38,3.16-5.4l-.03-11.33-8.99,4.98Z"/>
              <path class="cls-12" d="M177.85,68.59l.03,11.33c0,2.01,1.43,2.86,3.18,1.89l2.65-1.47c1.75-.97,3.16-3.39,3.16-5.4l-.03-11.33-8.99,4.98Z"/>
              <path class="cls-23" d="M195.81,58.64l.03,11.33c0,2.01,1.44,2.85,3.19,1.88l2.64-1.46c1.75-.97,3.17-3.39,3.16-5.4l-.03-11.33-8.99,4.98Z"/>
              <path class="cls-73" d="M213.79,48.68l.03,11.33c0,2.01,1.43,2.86,3.18,1.89l2.65-1.47c1.75-.97,3.16-3.38,3.16-5.4l-.03-11.33-8.99,4.98Z"/>
              <path class="cls-97" d="M88,118.37l.03,11.33c0,2.01,1.43,2.86,3.18,1.89l2.65-1.47c1.75-.97,3.17-3.38,3.16-5.4l-.03-11.33-8.99,4.98Z"/>
              <path class="cls-44" d="M105.97,108.41l.03,11.33c0,2.01,1.43,2.86,3.18,1.89l2.64-1.46c1.75-.97,3.17-3.39,3.17-5.4l-.03-11.33-8.99,4.98Z"/>
              <path class="cls-76" d="M123.93,98.46l.03,11.33c0,2.01,1.44,2.85,3.18,1.89l2.65-1.47c1.75-.97,3.17-3.38,3.16-5.4l-.03-11.33-8.99,4.98Z"/>
              <path class="cls-61" d="M70.03,128.32l.03,11.33c0,2.01,1.43,2.86,3.18,1.89l2.64-1.46c1.75-.97,3.17-3.38,3.16-5.4l-.03-11.33-8.98,4.97Z"/>
              <path class="cls-8" d="M34.08,148.24l.03,11.33c0,2.01,1.43,2.85,3.19,1.88l2.64-1.46c1.75-.97,3.17-3.38,3.16-5.4l-.03-11.33-8.99,4.98Z"/>
              <path class="cls-109" d="M52.05,138.28l.03,11.33c0,2.01,1.43,2.86,3.18,1.89l2.65-1.47c1.75-.97,3.16-3.38,3.16-5.4l-.03-11.33-8.99,4.98Z"/>
            </g>
            <g>
              <path class="cls-94" d="M240.74,33.75l.03,11.33c0,2.01,1.44,2.85,3.19,1.88l2.64-1.46c1.75-.97,3.16-3.38,3.16-5.4l-.03-11.33-8.99,4.98Z"/>
              <path class="cls-143" d="M222.77,43.71l.03,11.33c0,2.01,1.43,2.86,3.18,1.89l2.64-1.46c1.75-.97,3.17-3.39,3.17-5.4l-.03-11.33-8.99,4.98Z"/>
              <path class="cls-40" d="M132.92,93.48l.03,11.33c0,2.01,1.43,2.86,3.18,1.89l2.65-1.47c1.75-.97,3.17-3.38,3.16-5.4l-.03-11.33-8.99,4.98Z"/>
              <path class="cls-11" d="M150.9,83.53l.03,11.33c0,2.01,1.43,2.86,3.18,1.89l2.64-1.46c1.75-.97,3.16-3.39,3.16-5.4l-.03-11.33-8.98,4.98Z"/>
              <path class="cls-10" d="M168.86,73.57l.03,11.33c0,2.01,1.43,2.86,3.18,1.89l2.65-1.47c1.75-.97,3.17-3.38,3.16-5.4l-.03-11.33-8.99,4.98Z"/>
              <path class="cls-132" d="M186.84,63.62l.03,11.33c0,2.01,1.43,2.86,3.18,1.89l2.64-1.46c1.75-.97,3.17-3.39,3.16-5.4l-.03-11.33-8.98,4.97Z"/>
              <path class="cls-60" d="M204.8,53.66l.03,11.33c0,2.01,1.43,2.86,3.18,1.89l2.65-1.47c1.75-.97,3.17-3.39,3.16-5.4l-.03-11.33-8.99,4.98Z"/>
              <path class="cls-113" d="M96.98,113.39l.03,11.33c0,2.01,1.43,2.86,3.18,1.89l2.65-1.47c1.75-.97,3.17-3.39,3.16-5.4l-.03-11.33-8.99,4.98Z"/>
              <path class="cls-53" d="M114.96,103.43l.03,11.33c0,2.01,1.43,2.86,3.18,1.89l2.64-1.46c1.75-.97,3.17-3.38,3.16-5.4l-.03-11.33-8.98,4.97Z"/>
              <path class="cls-87" d="M79.01,123.35l.03,11.33c0,2.01,1.44,2.85,3.18,1.89l2.65-1.47c1.75-.97,3.17-3.39,3.16-5.4l-.03-11.33-8.99,4.98Z"/>
              <path class="cls-122" d="M43.07,143.26l.03,11.33c0,2.01,1.43,2.86,3.18,1.89l2.65-1.47c1.75-.97,3.17-3.38,3.16-5.4l-.03-11.33-8.99,4.98Z"/>
              <path class="cls-116" d="M61.04,133.3l.03,11.33c0,2.01,1.43,2.86,3.18,1.89l2.64-1.46c1.75-.97,3.17-3.39,3.17-5.4l-.03-11.33-8.99,4.98Z"/>
              <path class="cls-151" d="M25.1,153.21l.03,11.33c0,2.01,1.43,2.86,3.18,1.89l2.64-1.46c1.75-.97,3.17-3.38,3.16-5.4l-.03-11.33-8.98,4.97Z"/>
            </g>
            <polygon class="cls-39" points="25.1 153.93 249.73 29.49 249.73 28.77 25.1 153.21 25.1 153.93"/>
          </g>
          <g>
            <polygon class="cls-88" points="242.45 131.11 192.47 160.42 193.69 166.93 243.67 137.61 242.45 131.11"/>
            <path class="cls-112" d="M310.96,180.24h0s0-3.1,0-3.1l-6.1-.89-63.95-36.92c-1-.58-2.63-.58-3.63,0l-37.13,21.58-3.55-.52v3.2h0c0,.38,.26,.76,.76,1.05l69.3,40.01c1.01,.58,2.63,.58,3.63,0l39.93-23.2c.56-.33,.79-.77,.72-1.19Z"/>
            <path class="cls-135" d="M240.92,139.32c-1-.58-2.63-.58-3.63,0l-37.13,21.58-3.55-.52v.42c0,.38,.26,.76,.76,1.05l69.3,40.01c1.01,.58,2.63,.58,3.63,0l39.93-23.2c.56-.33,.79-.77,.72-1.19h0s0-.33,0-.33l-6.1-.89-63.95-36.92Z"/>
            <path class="cls-81" d="M310.22,176.13l-69.3-40.01c-1-.58-2.63-.58-3.63,0l-39.93,23.2c-1,.58-.99,1.52,.01,2.1l69.3,40.01c1.01,.58,2.63,.58,3.63,0l39.93-23.2c1-.58,.99-1.52-.02-2.1Z"/>
            <g>
              <polygon class="cls-45" points="217.11 167.5 226.4 172.87 231.02 170.18 221.73 164.82 217.11 167.5"/>
              <polygon class="cls-45" points="233.92 138.08 223.71 144.02 296.61 186.11 306.83 180.18 233.92 138.08"/>
              <polygon class="cls-45" points="210.01 158.05 205.39 160.74 214.68 166.1 219.31 163.42 210.01 158.05"/>
            </g>
            <path class="cls-27" d="M226.1,178.01h84.46c.66-.58,.55-1.36-.33-1.88l-17.47-10.09h-87.37l20.72,11.96Z"/>
            <polygon class="cls-27" points="198.06 158.92 280.41 158.92 246.38 139.27 231.88 139.27 198.06 158.92"/>
          </g>
          <g>
            <g>
              <path class="cls-19" d="M315.04,253.22c0,.08-.01,.15-.04,.23,0,0,0,.02,0,.03-.02,.07-.06,.14-.11,.21,0,.01-.02,.03-.03,.04-.05,.07-.11,.13-.18,.2-.05,.04-.11,.08-.17,.12-.04,.03-.08,.07-.13,.09l-37.04,21.52c-.14,.08-.29,.14-.45,.2-.05,.02-.11,.04-.16,.05-.08,.02-.15,.04-.23,.06-.09,.02-.19,.04-.28,.05-.02,0-.04,0-.06,0-.13,.01-.25,.02-.38,.02h-.06c-.13,0-.25,0-.38-.02-.02,0-.03,0-.05,0-.12-.01-.25-.04-.37-.06-.02,0-.04-.01-.06-.02-.11-.03-.22-.06-.33-.1-.01,0-.03,0-.04-.01-.12-.05-.24-.1-.35-.16l-74.45-42.99c-.45-.26-.67-.59-.66-.93,0,.61,0,1.23,0,1.84,0,.34,.22,.67,.66,.93l74.45,42.99c.1,.06,.21,.11,.33,.16,0,0,.01,0,.02,0,.02,0,.04,.01,.06,.02,.06,.02,.13,.05,.19,.07,.04,0,.07,.02,.11,.03,.03,0,.05,.01,.08,.02,.02,0,.03,0,.05,.01h0s0,0,0,0c.07,.01,.15,.03,.22,.04,.03,0,.06,0,.08,0,.02,0,.04,0,.06,0,.03,0,.05,0,.08,0,.07,0,.15,0,.22,.01,.03,0,.05,0,.08,0,.02,0,.03,0,.05,0,.03,0,.07,0,.1,0,.08,0,.17,0,.25-.02,.01,0,.02,0,.03,0,.02,0,.04,0,.06,0,.07,0,.13-.02,.19-.03,.03,0,.05-.01,.08-.02,.08-.02,.16-.04,.23-.06,.04-.01,.08-.02,.11-.03,.02,0,.03-.01,.05-.02,.16-.05,.31-.12,.45-.2l37.03-21.52s.02-.01,.03-.02c.05-.03,.08-.06,.12-.09,.05-.04,.11-.07,.15-.11,0,0,.01,0,.02-.01,.05-.05,.1-.1,.14-.15,0-.01,.02-.02,.02-.04,0-.01,.02-.02,.02-.04,.01-.02,.03-.04,.04-.06,.02-.04,.04-.09,.06-.13,0,0,0-.01,0-.02,0,0,0-.02,0-.03,0-.03,.02-.05,.02-.08,0-.04,.01-.09,.01-.13,0,0,0-.01,0-.02,0-.56,0-1.13,0-1.69v-.15Z"/>
              <path class="cls-129" d="M275.2,276.4s.06,0,.08,0c.02,0,.04,0,.06,0,.03,0,.05,0,.08,0,.07,0,.15,0,.22,.01,.03,0,.05,0,.08,0h.15c.08,0,.17,0,.25-.02,.01,0,.02,0,.03,0,.02,0,.04,0,.06,0,.07,0,.13-.02,.19-.03,.03,0,.05-.01,.08-.02,.08-.02,.16-.04,.23-.06,.04-.01,.08-.02,.11-.03,.02,0,.03-.02,.05-.02,.16-.05,.31-.12,.45-.2l37.03-21.52s.02-.01,.03-.02c.05-.03,.08-.06,.12-.09,.05-.04,.11-.07,.15-.11,0,0,.01,0,.02-.01,.05-.05,.1-.1,.14-.15,0-.01,.02-.02,.02-.04,0-.01,.02-.02,.02-.04,.01-.02,.03-.04,.04-.06,.02-.04,.04-.08,.06-.13,0,0,0-.01,0-.02,0,0,0-.02,0-.03,0-.03,.02-.05,.02-.08,0-.04,.01-.09,.01-.13,0,0,0-.01,0-.02,0-.12,0-.25,0-.37,0,.07-.01,.14-.03,.21,0,0,0,.02,0,.03-.02,.07-.06,.14-.11,.21,0,.01-.02,.03-.03,.04-.05,.07-.11,.13-.18,.2-.05,.04-.11,.08-.17,.12-.04,.03-.08,.07-.13,.09l-37.04,21.52c-.14,.08-.29,.14-.45,.2-.05,.02-.11,.04-.16,.05-.08,.02-.15,.04-.23,.06-.09,.02-.19,.04-.28,.05-.02,0-.04,0-.06,0-.13,.01-.25,.02-.38,.02h-.06c-.13,0-.25,0-.38-.02-.02,0-.03,0-.05,0-.12-.01-.25-.04-.37-.06-.02,0-.04-.01-.06-.02-.11-.03-.22-.06-.33-.1-.01,0-.03,0-.04-.01-.12-.05-.24-.1-.35-.16l-74.45-42.99c-.45-.26-.67-.59-.66-.93,0,.14,0,.28,0,.42,0,.33,.23,.66,.66,.91l74.45,42.99c.1,.06,.21,.11,.33,.16,0,0,.01,0,.02,0,.02,0,.04,.01,.06,.02,.06,.02,.13,.05,.19,.06,.04,.01,.07,.02,.11,.03,.03,0,.05,.01,.08,.02,.02,0,.03,0,.05,.01h0c.07,.02,.15,.03,.22,.04Z"/>
              <path class="cls-46" d="M314.37,252.29l-74.46-42.99c-.88-.51-2.31-.51-3.19,0l-37.03,21.52c-.88,.51-.88,1.34,0,1.85l74.45,42.99c.89,.51,2.32,.51,3.2,0l37.04-21.52c.88-.51,.87-1.34,0-1.85Z"/>
              <path class="cls-85" d="M303.12,249.46l-58.28-33.65c-3.66,2.12-9.6,2.12-13.28,0l-20.66,12c3.68,2.12,3.7,5.57,.04,7.69l58.29,33.65c3.65-2.12,9.6-2.12,13.28,0l20.66-12c-3.68-2.12-3.7-5.57-.04-7.69Z"/>
              <path class="cls-117" d="M269.09,235.48c-6.7-3.87-17.53-3.87-24.19,0-6.66,3.87-6.62,10.14,.08,14.01,6.7,3.87,17.54,3.87,24.19,0,6.66-3.87,6.62-10.14-.08-14.01Z"/>
            </g>
            <g>
              <path class="cls-19" d="M315.04,250.39c0,.08-.01,.15-.04,.23,0,0,0,.02,0,.03-.02,.07-.06,.14-.11,.21,0,.01-.02,.03-.03,.04-.05,.07-.11,.13-.18,.2-.05,.04-.11,.08-.17,.12-.04,.03-.08,.07-.13,.09l-37.04,21.52c-.14,.08-.29,.14-.45,.2-.05,.02-.11,.04-.16,.05-.08,.02-.15,.04-.23,.06-.09,.02-.19,.04-.28,.05-.02,0-.04,0-.06,0-.13,.01-.25,.02-.38,.02h-.06c-.13,0-.25,0-.38-.02-.02,0-.03,0-.05,0-.12-.01-.25-.04-.37-.06-.02,0-.04-.01-.06-.02-.11-.03-.22-.06-.33-.1-.01,0-.03,0-.04-.01-.12-.05-.24-.1-.35-.16l-74.45-42.99c-.45-.26-.67-.59-.66-.93,0,.61,0,1.23,0,1.84,0,.34,.22,.67,.66,.93l74.45,42.99c.1,.06,.21,.11,.33,.16,0,0,.01,0,.02,0,.02,0,.04,.01,.06,.02,.06,.02,.13,.05,.19,.07,.04,0,.07,.02,.11,.03,.03,0,.05,.01,.08,.02,.02,0,.03,0,.05,.01h0s0,0,0,0c.07,.01,.15,.03,.22,.04,.03,0,.06,0,.08,0,.02,0,.04,0,.06,0,.03,0,.05,0,.08,0,.07,0,.15,0,.22,.01,.03,0,.05,0,.08,0,.02,0,.03,0,.05,0,.03,0,.07,0,.1,0,.08,0,.17,0,.25-.02,.01,0,.02,0,.03,0,.02,0,.04,0,.06,0,.07,0,.13-.02,.19-.03,.03,0,.05-.01,.08-.02,.08-.02,.16-.04,.23-.06,.04-.01,.08-.02,.11-.03,.02,0,.03-.01,.05-.02,.16-.05,.31-.12,.45-.2l37.03-21.52s.02-.01,.03-.02c.05-.03,.08-.06,.12-.09,.05-.04,.11-.07,.15-.11,0,0,.01,0,.02-.01,.05-.05,.1-.1,.14-.15,0-.01,.02-.02,.02-.04,0-.01,.02-.02,.02-.04,.01-.02,.03-.04,.04-.06,.02-.04,.04-.09,.06-.13,0,0,0-.01,0-.02,0,0,0-.02,0-.03,0-.03,.02-.05,.02-.08,0-.04,.01-.09,.01-.13,0,0,0-.01,0-.02,0-.56,0-1.13,0-1.69v-.15Z"/>
              <path class="cls-129" d="M275.2,273.57s.06,0,.08,0c.02,0,.04,0,.06,0,.03,0,.05,0,.08,0,.07,0,.15,0,.22,.01,.03,0,.05,0,.08,0h.15c.08,0,.17,0,.25-.02,.01,0,.02,0,.03,0,.02,0,.04,0,.06,0,.07,0,.13-.02,.19-.03,.03,0,.05-.01,.08-.02,.08-.02,.16-.04,.23-.06,.04-.01,.08-.02,.11-.03,.02,0,.03-.02,.05-.02,.16-.05,.31-.12,.45-.2l37.03-21.52s.02-.01,.03-.02c.05-.03,.08-.06,.12-.09,.05-.04,.11-.07,.15-.11,0,0,.01,0,.02-.01,.05-.05,.1-.1,.14-.15,0-.01,.02-.02,.02-.04,0-.01,.02-.02,.02-.04,.01-.02,.03-.04,.04-.06,.02-.04,.04-.08,.06-.13,0,0,0-.01,0-.02,0,0,0-.02,0-.03,0-.03,.02-.05,.02-.08,0-.04,.01-.09,.01-.13,0,0,0-.01,0-.02,0-.12,0-.25,0-.37,0,.07-.01,.14-.03,.21,0,0,0,.02,0,.03-.02,.07-.06,.14-.11,.21,0,.01-.02,.03-.03,.04-.05,.07-.11,.13-.18,.2-.05,.04-.11,.08-.17,.12-.04,.03-.08,.07-.13,.09l-37.04,21.52c-.14,.08-.29,.14-.45,.2-.05,.02-.11,.04-.16,.05-.08,.02-.15,.04-.23,.06-.09,.02-.19,.04-.28,.05-.02,0-.04,0-.06,0-.13,.01-.25,.02-.38,.02h-.06c-.13,0-.25,0-.38-.02-.02,0-.03,0-.05,0-.12-.01-.25-.04-.37-.06-.02,0-.04-.01-.06-.02-.11-.03-.22-.06-.33-.1-.01,0-.03,0-.04-.01-.12-.05-.24-.1-.35-.16l-74.45-42.99c-.45-.26-.67-.59-.66-.93,0,.14,0,.28,0,.42,0,.33,.23,.66,.66,.91l74.45,42.99c.1,.06,.21,.11,.33,.16,0,0,.01,0,.02,0,.02,0,.04,.01,.06,.02,.06,.02,.13,.05,.19,.06,.04,.01,.07,.02,.11,.03,.03,0,.05,.01,.08,.02,.02,0,.03,0,.05,.01h0c.07,.02,.15,.03,.22,.04Z"/>
              <path class="cls-56" d="M314.37,249.46l-74.46-42.99c-.88-.51-2.31-.51-3.19,0l-37.03,21.52c-.88,.51-.88,1.34,0,1.85l74.45,42.99c.89,.51,2.32,.51,3.2,0l37.04-21.52c.88-.51,.87-1.34,0-1.85Z"/>
              <path class="cls-85" d="M303.12,246.63l-58.28-33.65c-3.66,2.12-9.6,2.12-13.28,0l-20.66,12c3.68,2.12,3.7,5.57,.04,7.69l58.29,33.65c3.65-2.12,9.6-2.12,13.28,0l20.66-12c-3.68-2.12-3.7-5.57-.04-7.69Z"/>
              <path class="cls-83" d="M269.09,232.65c-6.7-3.87-17.53-3.87-24.19,0-6.66,3.87-6.62,10.14,.08,14.01,6.7,3.87,17.54,3.87,24.19,0,6.66-3.87,6.62-10.14-.08-14.01Z"/>
            </g>
            <g>
              <path class="cls-19" d="M315.04,247.56c0,.08-.01,.15-.04,.23,0,0,0,.02,0,.03-.02,.07-.06,.14-.11,.21,0,.01-.02,.03-.03,.04-.05,.07-.11,.13-.18,.2-.05,.04-.11,.08-.17,.12-.04,.03-.08,.07-.13,.09l-37.04,21.52c-.14,.08-.29,.14-.45,.2-.05,.02-.11,.04-.16,.05-.08,.02-.15,.04-.23,.06-.09,.02-.19,.04-.28,.05-.02,0-.04,0-.06,0-.13,.01-.25,.02-.38,.02h-.06c-.13,0-.25,0-.38-.02-.02,0-.03,0-.05,0-.12-.01-.25-.04-.37-.06-.02,0-.04-.01-.06-.02-.11-.03-.22-.06-.33-.1-.01,0-.03,0-.04-.01-.12-.05-.24-.1-.35-.16l-74.45-42.99c-.45-.26-.67-.59-.66-.93,0,.61,0,1.23,0,1.84,0,.34,.22,.67,.66,.93l74.45,42.99c.1,.06,.21,.11,.33,.16,0,0,.01,0,.02,0,.02,0,.04,.01,.06,.02,.06,.02,.13,.05,.19,.07,.04,0,.07,.02,.11,.03,.03,0,.05,.01,.08,.02,.02,0,.03,0,.05,.01h0s0,0,0,0c.07,.01,.15,.03,.22,.04,.03,0,.06,0,.08,0,.02,0,.04,0,.06,0,.03,0,.05,0,.08,0,.07,0,.15,0,.22,.01,.03,0,.05,0,.08,0,.02,0,.03,0,.05,0,.03,0,.07,0,.1,0,.08,0,.17,0,.25-.02,.01,0,.02,0,.03,0,.02,0,.04,0,.06,0,.07,0,.13-.02,.19-.03,.03,0,.05-.01,.08-.02,.08-.02,.16-.04,.23-.06,.04-.01,.08-.02,.11-.03,.02,0,.03-.01,.05-.02,.16-.05,.31-.12,.45-.2l37.03-21.52s.02-.01,.03-.02c.05-.03,.08-.06,.12-.09,.05-.04,.11-.07,.15-.11,0,0,.01,0,.02-.01,.05-.05,.1-.1,.14-.15,0-.01,.02-.02,.02-.04,0-.01,.02-.02,.02-.04,.01-.02,.03-.04,.04-.06,.02-.04,.04-.09,.06-.13,0,0,0-.01,0-.02,0,0,0-.02,0-.03,0-.03,.02-.05,.02-.08,0-.04,.01-.09,.01-.13,0,0,0-.01,0-.02,0-.56,0-1.13,0-1.69v-.15Z"/>
              <path class="cls-129" d="M275.2,270.74s.06,0,.08,0c.02,0,.04,0,.06,0,.03,0,.05,0,.08,0,.07,0,.15,0,.22,.01,.03,0,.05,0,.08,0h.15c.08,0,.17,0,.25-.02,.01,0,.02,0,.03,0,.02,0,.04,0,.06,0,.07,0,.13-.02,.19-.03,.03,0,.05-.01,.08-.02,.08-.02,.16-.04,.23-.06,.04-.01,.08-.02,.11-.03,.02,0,.03-.02,.05-.02,.16-.05,.31-.12,.45-.2l37.03-21.52s.02-.01,.03-.02c.05-.03,.08-.06,.12-.09,.05-.04,.11-.07,.15-.11,0,0,.01,0,.02-.01,.05-.05,.1-.1,.14-.15,0-.01,.02-.02,.02-.04,0-.01,.02-.02,.02-.04,.01-.02,.03-.04,.04-.06,.02-.04,.04-.09,.06-.13,0,0,0-.01,0-.02,0,0,0-.02,0-.03,0-.03,.02-.05,.02-.08,0-.04,.01-.09,.01-.13,0,0,0-.01,0-.02,0-.12,0-.25,0-.37,0,.07-.01,.14-.03,.21,0,0,0,.02,0,.03-.02,.07-.06,.14-.11,.21,0,.01-.02,.03-.03,.04-.05,.07-.11,.13-.18,.2-.05,.04-.11,.08-.17,.12-.04,.03-.08,.07-.13,.09l-37.04,21.52c-.14,.08-.29,.14-.45,.2-.05,.02-.11,.04-.16,.05-.08,.02-.15,.04-.23,.06-.09,.02-.19,.04-.28,.05-.02,0-.04,0-.06,0-.13,.01-.25,.02-.38,.02h-.06c-.13,0-.25,0-.38-.02-.02,0-.03,0-.05,0-.12-.01-.25-.04-.37-.06-.02,0-.04-.01-.06-.02-.11-.03-.22-.06-.33-.1-.01,0-.03,0-.04-.01-.12-.05-.24-.1-.35-.16l-74.45-42.99c-.45-.26-.67-.59-.66-.93,0,.14,0,.28,0,.42,0,.33,.23,.66,.66,.91l74.45,42.99c.1,.06,.21,.11,.33,.16,0,0,.01,0,.02,0,.02,0,.04,.01,.06,.02,.06,.02,.13,.05,.19,.06,.04,.01,.07,.02,.11,.03,.03,0,.05,.01,.08,.02,.02,0,.03,0,.05,.01h0c.07,.02,.15,.03,.22,.04Z"/>
              <path class="cls-43" d="M314.37,246.63l-74.46-42.99c-.88-.51-2.31-.51-3.19,0l-37.03,21.52c-.88,.51-.88,1.34,0,1.85l74.45,42.99c.89,.51,2.32,.51,3.2,0l37.04-21.52c.88-.51,.87-1.34,0-1.85Z"/>
              <path class="cls-85" d="M303.12,243.8l-58.28-33.65c-3.66,2.12-9.6,2.12-13.28,0l-20.66,12c3.68,2.12,3.7,5.57,.04,7.69l58.29,33.65c3.65-2.12,9.6-2.12,13.28,0l20.66-12c-3.68-2.12-3.7-5.57-.04-7.69Z"/>
              <path class="cls-13" d="M269.09,229.81c-6.7-3.87-17.53-3.87-24.19,0-6.66,3.87-6.62,10.14,.08,14.01,6.7,3.87,17.54,3.87,24.19,0,6.66-3.87,6.62-10.14-.08-14.01Z"/>
            </g>
            <g>
              <path class="cls-19" d="M315.04,244.72c0,.08-.01,.15-.04,.23,0,0,0,.02,0,.03-.02,.07-.06,.14-.11,.21,0,.01-.02,.03-.03,.04-.05,.07-.11,.13-.18,.2-.05,.04-.11,.08-.17,.12-.04,.03-.08,.07-.13,.09l-37.04,21.52c-.14,.08-.29,.14-.45,.2-.05,.02-.11,.04-.16,.05-.08,.02-.15,.04-.23,.06-.09,.02-.19,.04-.28,.05-.02,0-.04,0-.06,0-.13,.01-.25,.02-.38,.02h-.06c-.13,0-.25,0-.38-.02-.02,0-.03,0-.05,0-.12-.01-.25-.04-.37-.06-.02,0-.04-.01-.06-.02-.11-.03-.22-.06-.33-.1-.01,0-.03,0-.04-.01-.12-.05-.24-.1-.35-.16l-74.45-42.99c-.45-.26-.67-.59-.66-.93,0,.61,0,1.23,0,1.84,0,.34,.22,.67,.66,.93l74.45,42.99c.1,.06,.21,.11,.33,.16,0,0,.01,0,.02,0,.02,0,.04,.01,.06,.02,.06,.02,.13,.05,.19,.07,.04,0,.07,.02,.11,.03,.03,0,.05,.01,.08,.02,.02,0,.03,0,.05,.01h0s0,0,0,0c.07,.01,.15,.03,.22,.04,.03,0,.06,0,.08,0,.02,0,.04,0,.06,0,.03,0,.05,0,.08,0,.07,0,.15,0,.22,.01,.03,0,.05,0,.08,0,.02,0,.03,0,.05,0,.03,0,.07,0,.1,0,.08,0,.17,0,.25-.02,.01,0,.02,0,.03,0,.02,0,.04,0,.06,0,.07,0,.13-.02,.19-.03,.03,0,.05-.01,.08-.02,.08-.02,.16-.04,.23-.06,.04-.01,.08-.02,.11-.03,.02,0,.03-.01,.05-.02,.16-.05,.31-.12,.45-.2l37.03-21.52s.02-.01,.03-.02c.05-.03,.08-.06,.12-.09,.05-.04,.11-.07,.15-.11,0,0,.01,0,.02-.01,.05-.05,.1-.1,.14-.15,0-.01,.02-.02,.02-.04,0-.01,.02-.02,.02-.04,.01-.02,.03-.04,.04-.06,.02-.04,.04-.09,.06-.13,0,0,0-.01,0-.02,0,0,0-.02,0-.03,0-.03,.02-.05,.02-.08,0-.04,.01-.09,.01-.13,0,0,0-.01,0-.02,0-.56,0-1.13,0-1.69v-.15Z"/>
              <path class="cls-129" d="M275.2,267.9s.06,0,.08,0c.02,0,.04,0,.06,0,.03,0,.05,0,.08,0,.07,0,.15,0,.22,.01,.03,0,.05,0,.08,0h.15c.08,0,.17,0,.25-.02,.01,0,.02,0,.03,0,.02,0,.04,0,.06,0,.07,0,.13-.02,.19-.03,.03,0,.05-.01,.08-.02,.08-.02,.16-.04,.23-.06,.04-.01,.08-.02,.11-.03,.02,0,.03-.02,.05-.02,.16-.05,.31-.12,.45-.2l37.03-21.52s.02-.01,.03-.02c.05-.03,.08-.06,.12-.09,.05-.04,.11-.07,.15-.11,0,0,.01,0,.02-.01,.05-.05,.1-.1,.14-.15,0-.01,.02-.02,.02-.04,0-.01,.02-.02,.02-.04,.01-.02,.03-.04,.04-.06,.02-.04,.04-.08,.06-.13,0,0,0-.01,0-.02,0,0,0-.02,0-.03,0-.03,.02-.05,.02-.08,0-.04,.01-.09,.01-.13,0,0,0-.01,0-.02,0-.12,0-.25,0-.37,0,.07-.01,.14-.03,.21,0,0,0,.02,0,.03-.02,.07-.06,.14-.11,.21,0,.01-.02,.03-.03,.04-.05,.07-.11,.13-.18,.2-.05,.04-.11,.08-.17,.12-.04,.03-.08,.07-.13,.09l-37.04,21.52c-.14,.08-.29,.14-.45,.2-.05,.02-.11,.04-.16,.05-.08,.02-.15,.04-.23,.06-.09,.02-.19,.04-.28,.05-.02,0-.04,0-.06,0-.13,.01-.25,.02-.38,.02h-.06c-.13,0-.25,0-.38-.02-.02,0-.03,0-.05,0-.12-.01-.25-.04-.37-.06-.02,0-.04-.01-.06-.02-.11-.03-.22-.06-.33-.1-.01,0-.03,0-.04-.01-.12-.05-.24-.1-.35-.16l-74.45-42.99c-.45-.26-.67-.59-.66-.93,0,.14,0,.28,0,.42,0,.33,.23,.66,.66,.91l74.45,42.99c.1,.06,.21,.11,.33,.16,0,0,.01,0,.02,0,.02,0,.04,.01,.06,.02,.06,.02,.13,.05,.19,.06,.04,.01,.07,.02,.11,.03,.03,0,.05,.01,.08,.02,.02,0,.03,0,.05,.01h0c.07,.02,.15,.03,.22,.04Z"/>
              <path class="cls-63" d="M314.37,243.79l-74.46-42.99c-.88-.51-2.31-.51-3.19,0l-37.03,21.52c-.88,.51-.88,1.34,0,1.85l74.45,42.99c.89,.51,2.32,.51,3.2,0l37.04-21.52c.88-.51,.87-1.34,0-1.85Z"/>
              <path class="cls-85" d="M303.12,240.96l-58.28-33.65c-3.66,2.12-9.6,2.12-13.28,0l-20.66,12c3.68,2.12,3.7,5.57,.04,7.69l58.29,33.65c3.65-2.12,9.6-2.12,13.28,0l20.66-12c-3.68-2.12-3.7-5.57-.04-7.69Z"/>
              <path class="cls-57" d="M269.09,226.98c-6.7-3.87-17.53-3.87-24.19,0-6.66,3.87-6.62,10.14,.08,14.01,6.7,3.87,17.54,3.87,24.19,0,6.66-3.87,6.62-10.14-.08-14.01Z"/>
            </g>
            <g>
              <path class="cls-19" d="M315.04,241.89c0,.08-.01,.15-.04,.23,0,0,0,.02,0,.03-.02,.07-.06,.14-.11,.21,0,.01-.02,.03-.03,.04-.05,.07-.11,.13-.18,.2-.05,.04-.11,.08-.17,.12-.04,.03-.08,.07-.13,.09l-37.04,21.52c-.14,.08-.29,.14-.45,.2-.05,.02-.11,.04-.16,.05-.08,.02-.15,.04-.23,.06-.09,.02-.19,.04-.28,.05-.02,0-.04,0-.06,0-.13,.01-.25,.02-.38,.02h-.06c-.13,0-.25,0-.38-.02-.02,0-.03,0-.05,0-.12-.01-.25-.04-.37-.06-.02,0-.04-.01-.06-.02-.11-.03-.22-.06-.33-.1-.01,0-.03,0-.04-.01-.12-.05-.24-.1-.35-.16l-74.45-42.99c-.45-.26-.67-.59-.66-.93,0,.61,0,1.23,0,1.84,0,.34,.22,.67,.66,.93l74.45,42.99c.1,.06,.21,.11,.33,.16,0,0,.01,0,.02,0,.02,0,.04,.01,.06,.02,.06,.02,.13,.05,.19,.07,.04,0,.07,.02,.11,.03,.03,0,.05,.01,.08,.02,.02,0,.03,0,.05,.01h0s0,0,0,0c.07,.01,.15,.03,.22,.04,.03,0,.06,0,.08,0,.02,0,.04,0,.06,0,.03,0,.05,0,.08,0,.07,0,.15,0,.22,.01,.03,0,.05,0,.08,0,.02,0,.03,0,.05,0,.03,0,.07,0,.1,0,.08,0,.17,0,.25-.02,.01,0,.02,0,.03,0,.02,0,.04,0,.06,0,.07,0,.13-.02,.19-.03,.03,0,.05-.01,.08-.02,.08-.02,.16-.04,.23-.06,.04-.01,.08-.02,.11-.03,.02,0,.03-.01,.05-.02,.16-.05,.31-.12,.45-.2l37.03-21.52s.02-.01,.03-.02c.05-.03,.08-.06,.12-.09,.05-.04,.11-.07,.15-.11,0,0,.01,0,.02-.01,.05-.05,.1-.1,.14-.15,0-.01,.02-.02,.02-.04,0-.01,.02-.02,.02-.04,.01-.02,.03-.04,.04-.06,.02-.04,.04-.09,.06-.13,0,0,0-.01,0-.02,0,0,0-.02,0-.03,0-.03,.02-.05,.02-.08,0-.04,.01-.09,.01-.13,0,0,0-.01,0-.02,0-.56,0-1.13,0-1.69v-.15Z"/>
              <path class="cls-129" d="M275.2,265.07s.06,0,.08,0c.02,0,.04,0,.06,0,.03,0,.05,0,.08,0,.07,0,.15,0,.22,.01,.03,0,.05,0,.08,0h.15c.08,0,.17,0,.25-.02,.01,0,.02,0,.03,0,.02,0,.04,0,.06,0,.07,0,.13-.02,.19-.03,.03,0,.05-.01,.08-.02,.08-.02,.16-.04,.23-.06,.04-.01,.08-.02,.11-.03,.02,0,.03-.02,.05-.02,.16-.05,.31-.12,.45-.2l37.03-21.52s.02-.01,.03-.02c.05-.03,.08-.06,.12-.09,.05-.04,.11-.07,.15-.11,0,0,.01,0,.02-.01,.05-.05,.1-.1,.14-.15,0-.01,.02-.02,.02-.04,0-.01,.02-.02,.02-.04,.01-.02,.03-.04,.04-.06,.02-.04,.04-.08,.06-.13,0,0,0-.01,0-.02,0,0,0-.02,0-.03,0-.03,.02-.05,.02-.08,0-.04,.01-.09,.01-.13,0,0,0-.01,0-.02,0-.12,0-.25,0-.37,0,.07-.01,.14-.03,.21,0,0,0,.02,0,.03-.02,.07-.06,.14-.11,.21,0,.01-.02,.03-.03,.04-.05,.07-.11,.13-.18,.2-.05,.04-.11,.08-.17,.12-.04,.03-.08,.07-.13,.09l-37.04,21.52c-.14,.08-.29,.14-.45,.2-.05,.02-.11,.04-.16,.05-.08,.02-.15,.04-.23,.06-.09,.02-.19,.04-.28,.05-.02,0-.04,0-.06,0-.13,.01-.25,.02-.38,.02h-.06c-.13,0-.25,0-.38-.02-.02,0-.03,0-.05,0-.12-.01-.25-.04-.37-.06-.02,0-.04-.01-.06-.02-.11-.03-.22-.06-.33-.1-.01,0-.03,0-.04-.01-.12-.05-.24-.1-.35-.16l-74.45-42.99c-.45-.26-.67-.59-.66-.93,0,.14,0,.28,0,.42,0,.33,.23,.66,.66,.91l74.45,42.99c.1,.06,.21,.11,.33,.16,0,0,.01,0,.02,0,.02,0,.04,.01,.06,.02,.06,.02,.13,.05,.19,.06,.04,.01,.07,.02,.11,.03,.03,0,.05,.01,.08,.02,.02,0,.03,0,.05,.01h0c.07,.02,.15,.03,.22,.04Z"/>
              <path class="cls-77" d="M314.37,240.96l-74.46-42.99c-.88-.51-2.31-.51-3.19,0l-37.03,21.52c-.88,.51-.88,1.34,0,1.85l74.45,42.99c.89,.51,2.32,.51,3.2,0l37.04-21.52c.88-.51,.87-1.34,0-1.85Z"/>
              <path class="cls-85" d="M303.12,238.13l-58.28-33.65c-3.66,2.12-9.6,2.12-13.28,0l-20.66,12c3.68,2.12,3.7,5.57,.04,7.69l58.29,33.65c3.65-2.12,9.6-2.12,13.28,0l20.66-12c-3.68-2.12-3.7-5.57-.04-7.69Z"/>
              <path class="cls-100" d="M269.09,224.15c-6.7-3.87-17.53-3.87-24.19,0-6.66,3.87-6.62,10.14,.08,14.01,6.7,3.87,17.54,3.87,24.19,0,6.66-3.87,6.62-10.14-.08-14.01Z"/>
            </g>
            <polygon class="cls-79" points="249.37 202.57 207.93 226.49 222.84 235.16 264.33 211.21 249.37 202.57"/>
            <polygon class="cls-141" points="222.84 235.16 222.84 248.41 207.93 239.75 207.93 226.49 222.84 235.16"/>
            <polygon class="cls-16" points="207.93 226.95 222.84 235.62 222.84 235.16 207.93 226.49 207.93 226.95"/>
          </g>
          <g>
            <path class="cls-14" d="M223.35,294.86s-8.29-1.2-10.23-1.62c-1.95-.42-4.45,.04-5,2.45-.56,2.41,1.18,4.22,6.24,7.09,5.06,2.87,5.63,2.86,7.29,3.74,1.66,.88,3.67,1.53,5.47,.79,1.79-.74,3.05-1.99,3.25-3.7,.21-1.71-.35-6.76-.35-6.76l-6.67-1.99Z"/>
            <path class="cls-45" d="M225.17,207.98s2.08,4.51,1.12,17.56c-.58,7.86,1.87,25.71,2.43,31.19,.55,5.48,.49,9.28,1.07,18.04,.89,13.31,1.16,25.52,1.16,25.52,0,0-3.29,2.67-8.46,1.23-5.16-1.44-4.32-5.96-4.32-5.96,0,0-5.44-32.46-6.93-41.94s-6.25-30.22-4.72-42.64l18.65-2.99Z"/>
            <path class="cls-45" d="M202.79,304.06s-8.29-1.2-10.23-1.62c-1.95-.42-4.45,.04-5,2.45-.56,2.41,1.18,4.23,6.24,7.09,5.06,2.86,5.63,2.86,7.29,3.74,1.66,.88,3.67,1.53,5.47,.79,1.79-.74,3.05-1.99,3.25-3.71,.21-1.71-.35-6.76-.35-6.76l-6.67-1.99Z"/>
            <path class="cls-69" d="M217.38,217.91s-3.24,7.29-5.39,14.87-2.22,27.74-1.67,33.22c.56,5.48,1.81,4.99,1.39,18.33-.42,13.34-.69,25.15-.69,25.15,0,0-3.29,2.67-8.46,1.23-5.16-1.44-4.32-5.96-4.32-5.96,0,0-1.92-32.12-3.41-41.61-1.49-9.49-6.25-30.22-4.72-42.64l27.27-2.59Z"/>
            <g>
              <path class="cls-128" d="M169.58,172.23s-1.09-2.44-1.53-3.76c-.43-1.32-1.03-2.95-.96-3.68,.07-.73,.23-1.1,.52-1.12,.29-.01,.8,1.1,1.2,2.12,.4,1.02,.81,1.54,1,2.25,.19,.71,.92,2.27,.92,2.27l-1.17,1.92Z"/>
              <path class="cls-70" d="M170.52,170.44s-.84-2.53-1.14-3.89c-.3-1.36-.72-3.04-.58-3.76,.14-.72,.34-1.07,.63-1.06,.29,.02,.68,1.17,.98,2.23,.29,1.06,.65,1.61,.77,2.34,.12,.72,.81,2.7,.81,2.7l-1.47,1.44Z"/>
              <path class="cls-103" d="M171.71,169.34s-.33-2.3-.37-3.51c-.05-1.21-.15-2.71,.08-3.31,.23-.59,.45-.87,.7-.81,.25,.06,.4,1.11,.49,2.06,.09,.95,.31,1.48,.3,2.12,0,.64,.28,2.44,.28,2.44l-1.48,1Z"/>
              <path class="cls-2" d="M173.14,169.14s-.14-2-.1-3.05c.03-1.04,.04-2.35,.28-2.85,.24-.5,.45-.72,.66-.65,.21,.07,.28,.98,.3,1.81,.02,.83,.17,1.3,.13,1.85-.05,.55,.09,2.12,.09,2.12l-1.34,.77Z"/>
              <path class="cls-50" d="M176.77,175.79s-1.07-.07-2.41,0c-1.34,.07-2.01,.3-2.96,.69-.96,.39-1.41,.73-1.75,1.2-.34,.46-1.29-.04-.83-1.35,.29-.82,.33-.81,1.11-1.59,.41-.41-.06-1.29-.27-2.14-.21-.86-.5-1.04-.51-1.94s4.63-4.09,5.02-3.59c.89,1.16,1.12,2,1.42,2.72,.3,.72,2.46,1.07,2.46,1.07l-1.27,4.93Z"/>
            </g>
            <path class="cls-93" d="M173.92,175.88s-.08-5.08,1.66-6.33l2.5,.4s.62-.74,1.99-.56c1.36,.18,12.15,2.03,12.15,2.03l.89,10.28s-12.21-2.3-13.84-2.85c-1.63-.56-2.4-1.81-2.4-1.81l-2.95-1.17Z"/>
            <path class="cls-6" d="M193.11,154.6s-4.86,2.03-4.77,8.46c.09,6.44,2.87,21.92,3.46,30.1,.59,8.17-2.59,19.51-2.75,21.65-.16,2.14,.3,2.15,.3,2.15,0,0-.33,1.92-.44,4.33,9.25,4.08,20.34,2.28,28.46-1.76,8.12-4.03,9.31-8.12,9.31-8.12l-.33-4.25s.69-.92,.52-1.99c-.17-1.06-2.93-15.76-3.21-19.89-.27-4.13,4.21-28.11,2.27-35.27-1.95-7.16-7.59-7.15-9.08-7.12-1.48,.03-23.75,11.71-23.75,11.71Z"/>
            <path class="cls-124" d="M196.89,123.47s-1.45,4.99-1.27,6.68c.18,1.69-.38,4.8-.41,6.61-.04,1.82,.35,7.93,1.87,8.5,1.53,.57,4.42,.37,4.42,.37l-.47,6.46s5.53,1.24,9.37-.77c3.84-2.01,4.36-4.57,4.36-4.57,0,0-.84-3.03-1.1-6.64-.26-3.61-.78-17.88-.78-17.88l-16,1.25Z"/>
            <path class="cls-106" d="M199.27,124.98s-1.34,4.37-1.08,6.1c.26,1.73,1.76,2.16,1.51,4.48-.25,2.32-.3,3.3-.3,3.3,0,0,1.72,.11,2.03-1.01,.3-1.11,.45-2.02,1.98-1.41,1.53,.61,1.7,3.81,1.39,5.8,0,0,1.83,2.6,6.26,2.32,0,0,3.53-1.74,5.58-5.77,2.05-4.03,3.67-9.24,2.5-12.5,.66-1.01-.11-5.88-2.82-7.46-2.71-1.58-5.21-3.11-5.59-4.04-.63,1.01-.31,2.04-.31,2.04-3.23-.75-5.7-1.55-8.75-1-3.06,.56-4.12,.03-4.12,.03,0,0-.75,1.86,.42,2.44,0,0-2.52,1.24-2.92,3.22,0,0,.72-.07,1.12-.36,0,0-.8,4.39,1.48,5.83,0,0,.56-1.23,1.63-2.01Z"/>
            <path class="cls-5" d="M196.89,152.02c1.5-.93,2.78-2.13,6.77-2,3.99,.13,9.62-1.66,10.7-5.02l-.3-1.64s2.49-1.21,3.79,.04c1.3,1.25,6.22,8.12,5.14,15.02-1.28,8.18-4.04,8.11-6.35,8.66-2.31,.56-7.87-.75-12.98-5.78-5.11-5.03-7.7-7.06-10.15-6.93,0,0,1.74-1.34,3.38-2.34Z"/>
            <path class="cls-91" d="M193.11,154.6s1.39-1.94,3.36-2.31c1.97-.38,10.63,3.05,14.77,5.36,4.14,2.32,8.55,.66,8.29-3.81-.26-4.47-2.99-9.72-5.21-10.59,0,0,1.46-1.24,3.54-.18,2.08,1.07,5.76,7.21,5.81,13.82s-2.17,10.38-6.08,10.98c-3.91,.6-9.56-1.46-13.8-5.49-4.24-4.03-5.62-6.93-10.68-7.77Z"/>
            <path class="cls-64" d="M182.04,211.52s-1.9,5.51-2.01,6.9,.49,6.21,.6,6.75c.12,.54,1.35,1.21,2.08,1.79,.74,.58,4.35,1.16,5.02,1.58,.67,.42,1.09,.15,.79-.78-.3-.93-1.18-1.58-1.39-2.2-.21-.63-.31-3.43,.02-4.31,.33-.88,1.25-3.14,1.3-4.72,.05-1.58-.94-4.29-.94-4.29l-5.48-.72Z"/>
            <path class="cls-9" d="M191.37,155.75c-2.44,.82-5.75,4.74-4.34,19.46,1.4,14.73,1.15,12.96,.72,16.52-.43,3.56-4.36,13.63-5.31,14.46-.95,.83,.36,2.71,.36,2.71l-1.57,3.21s.77,4.96,7.59,3.93l1.55-3.55s2.96-.83,3.11-3.15c.15-2.31,5.58-10.75,6.2-17.89,.62-7.14,2.66-12.28,2.16-20.39-.53-8.69-5.46-16.99-10.48-15.31Z"/>
          </g>
        </g>
      </g>
    </g>
  </g>
</svg>