<?xml version="1.0" encoding="utf-8"?>
<!-- Generator: Adobe Illustrator 27.0.0, SVG Export Plug-In . SVG Version: 6.00 Build 0)  -->
<svg version="1.1" id="instagram" xmlns="http://www.w3.org/2000/svg" xmlns:xlink="http://www.w3.org/1999/xlink" x="0px" y="0px"
	 viewBox="0 0 2500 2500" style="enable-background:new 0 0 2500 2500;" xml:space="preserve">
<style type="text/css">
	.st0{fill:#FF1DE9;}
	.st1{fill:#FFFFFF;}
</style>
<path class="st0" d="M2293.4,2499.9h-2087c-114,0-206.5-92.4-206.5-206.5v-2087C0,92.4,92.4,0,206.5,0h2087
	c114,0,206.5,92.4,206.5,206.5v2087C2499.9,2407.5,2407.5,2499.9,2293.4,2499.9z"/>
<path class="st1" d="M908.5,1250c0-188.6,152.9-341.6,341.5-341.6s341.6,153,341.6,341.6s-153,341.6-341.6,341.6
	S908.5,1438.6,908.5,1250 M723.8,1250c0,290.6,235.6,526.2,526.2,526.2s526.2-235.6,526.2-526.2S1540.6,723.8,1250,723.8
	S723.8,959.4,723.8,1250 M1674,702.9c0,67.9,55,123,123,123c67.9,0,123-55.1,123-123S1865,580,1797,580
	C1729.1,580,1674,635.1,1674,702.9 M836,2084.1c-99.9-4.6-154.2-21.2-190.3-35.3c-47.8-18.6-81.9-40.8-117.9-76.6
	c-35.8-35.8-58.1-69.9-76.6-117.8c-14.1-36.1-30.7-90.4-35.3-190.3c-5-108-6-140.5-6-414.1s1.1-306,6-414.1
	c4.6-99.9,21.3-154.1,35.3-190.3c18.6-47.8,40.8-81.9,76.6-117.9c35.8-35.8,69.9-58.1,117.9-76.6C681.8,437,736,420.4,836,415.8
	c108-5,140.5-6,414-6c273.6,0,306,1.1,414.1,6c99.9,4.6,154.1,21.3,190.3,35.3c47.8,18.5,81.9,40.8,117.9,76.6
	c35.8,35.8,58,70,76.6,117.9c14.1,36.1,30.7,90.4,35.3,190.3c5,108.1,6,140.5,6,414.1c0,273.6-1,306-6,414.1
	c-4.6,99.9-21.3,154.2-35.3,190.3c-18.6,47.8-40.8,81.9-76.6,117.8c-35.8,35.8-70,58-117.9,76.6c-36.1,14.1-90.4,30.7-190.3,35.3
	c-108,5-140.5,6-414.1,6C976.4,2090.1,944,2089.1,836,2084.1 M827.5,231.5c-109.1,5-183.6,22.3-248.7,47.6
	c-67.4,26.2-124.5,61.3-181.5,118.2c-56.9,56.9-92,114.1-118.2,181.5c-25.3,65.1-42.6,139.6-47.6,248.7
	c-5,109.3-6.2,144.2-6.2,422.5s1.2,313.2,6.2,422.5c5,109.1,22.3,183.6,47.6,248.7c26.2,67.4,61.2,124.6,118.2,181.5
	c56.9,56.9,114.1,92,181.5,118.2c65.2,25.3,139.6,42.6,248.7,47.6c109.3,5,144.2,6.2,422.5,6.2c278.4,0,313.2-1.2,422.5-6.2
	c109.1-5,183.6-22.3,248.7-47.6c67.4-26.2,124.5-61.3,181.5-118.2c56.9-56.9,92-114.1,118.2-181.5c25.3-65.1,42.7-139.6,47.6-248.7
	c5-109.3,6.1-144.2,6.1-422.5s-1.2-313.2-6.1-422.5c-5-109.1-22.3-183.6-47.6-248.7c-26.2-67.4-61.3-124.5-118.2-181.5
	c-56.9-56.9-114.1-92-181.4-118.2c-65.2-25.3-139.7-42.7-248.7-47.6c-109.3-5-144.2-6.2-422.5-6.2
	C971.7,225.3,936.9,226.4,827.5,231.5"/>
</svg>
